<?xml version="1.0" encoding="UTF-8"?><svg id="Layer_1" xmlns="http://www.w3.org/2000/svg" xmlns:xlink="http://www.w3.org/1999/xlink" viewBox="0 0 1920 1080"><defs><style>.cls-1{stroke:url(#linear-gradient-2);}.cls-1,.cls-2,.cls-3,.cls-4,.cls-5,.cls-6,.cls-7,.cls-8,.cls-9,.cls-10,.cls-11,.cls-12,.cls-13,.cls-14,.cls-15,.cls-16,.cls-17,.cls-18,.cls-19,.cls-20,.cls-21,.cls-22,.cls-23,.cls-24,.cls-25,.cls-26,.cls-27,.cls-28,.cls-29,.cls-30,.cls-31,.cls-32,.cls-33,.cls-34,.cls-35,.cls-36,.cls-37,.cls-38,.cls-39,.cls-40,.cls-41,.cls-42,.cls-43,.cls-44,.cls-45,.cls-46,.cls-47,.cls-48,.cls-49,.cls-50,.cls-51,.cls-52,.cls-53,.cls-54,.cls-55,.cls-56,.cls-57,.cls-58,.cls-59,.cls-60,.cls-61,.cls-62,.cls-63,.cls-64,.cls-65,.cls-66,.cls-67,.cls-68,.cls-69,.cls-70,.cls-71,.cls-72,.cls-73,.cls-74,.cls-75,.cls-76,.cls-77,.cls-78,.cls-79,.cls-80,.cls-81,.cls-82,.cls-83,.cls-84,.cls-85,.cls-86,.cls-87,.cls-88,.cls-89,.cls-90,.cls-91,.cls-92,.cls-93,.cls-94,.cls-95,.cls-96,.cls-97,.cls-98,.cls-99,.cls-100,.cls-101,.cls-102,.cls-103,.cls-104,.cls-105,.cls-106,.cls-107,.cls-108,.cls-109,.cls-110,.cls-111,.cls-112,.cls-113,.cls-114,.cls-115,.cls-116,.cls-117,.cls-118,.cls-119,.cls-120,.cls-121,.cls-122,.cls-123,.cls-124,.cls-125,.cls-126,.cls-127,.cls-128,.cls-129,.cls-130,.cls-131,.cls-132,.cls-133,.cls-134,.cls-135,.cls-136,.cls-137,.cls-138{fill:none;}.cls-1,.cls-2,.cls-3,.cls-4,.cls-5,.cls-6,.cls-7,.cls-8,.cls-9,.cls-10,.cls-11,.cls-12,.cls-13,.cls-14,.cls-15,.cls-16,.cls-17,.cls-18,.cls-19,.cls-20,.cls-21,.cls-22,.cls-23,.cls-24,.cls-25,.cls-26,.cls-27,.cls-28,.cls-29,.cls-30,.cls-32,.cls-33,.cls-34,.cls-35,.cls-36,.cls-37,.cls-38,.cls-39,.cls-40,.cls-41,.cls-42,.cls-43,.cls-44,.cls-45,.cls-46,.cls-47,.cls-48,.cls-49,.cls-50,.cls-51,.cls-52,.cls-53,.cls-54,.cls-55,.cls-56,.cls-57,.cls-58,.cls-59,.cls-60,.cls-61,.cls-62,.cls-63,.cls-64,.cls-65,.cls-66,.cls-67,.cls-68,.cls-69,.cls-70,.cls-71,.cls-72,.cls-73,.cls-74,.cls-75,.cls-76,.cls-77,.cls-78,.cls-79,.cls-80,.cls-81,.cls-82,.cls-83,.cls-84,.cls-85,.cls-86,.cls-87,.cls-88,.cls-89,.cls-90,.cls-91,.cls-92,.cls-93,.cls-94,.cls-95,.cls-96,.cls-97,.cls-98,.cls-99,.cls-100,.cls-101,.cls-102,.cls-103,.cls-104,.cls-105,.cls-106,.cls-107,.cls-108,.cls-109,.cls-110,.cls-111,.cls-112,.cls-113,.cls-114,.cls-115,.cls-116,.cls-117,.cls-118,.cls-119,.cls-120,.cls-121,.cls-122,.cls-123,.cls-124,.cls-125,.cls-126,.cls-127,.cls-128,.cls-129,.cls-130,.cls-131,.cls-132,.cls-133,.cls-134,.cls-135,.cls-136,.cls-137,.cls-138{stroke-miterlimit:10;}.cls-2{stroke:url(#Gold_Effect-31);}.cls-3{stroke:url(#Gold_Effect-26);}.cls-4{stroke:url(#linear-gradient-3);}.cls-5{stroke:url(#Gold_Effect-10);}.cls-6{stroke:url(#linear-gradient-28);}.cls-7{stroke:url(#linear-gradient-64);}.cls-8{stroke:url(#Gold_Effect-24);}.cls-9{stroke:url(#linear-gradient-9);}.cls-10{stroke:url(#linear-gradient-37);}.cls-11{stroke:url(#linear-gradient-76);}.cls-12{stroke:url(#Gold_Effect-28);}.cls-13{stroke:url(#linear-gradient-53);}.cls-14{stroke:url(#linear-gradient-58);}.cls-15{stroke:url(#linear-gradient-22);}.cls-16{stroke:url(#Gold_Effect-52);}.cls-17{stroke:url(#linear-gradient-19);}.cls-18{stroke:url(#linear-gradient-70);}.cls-19{stroke:url(#linear-gradient-26);}.cls-20{stroke:url(#Gold_Effect-5);}.cls-21{stroke:url(#linear-gradient-4);}.cls-22{stroke:url(#linear-gradient-61);}.cls-23{stroke:url(#linear-gradient-6);}.cls-24{stroke:url(#Gold_Effect-46);}.cls-25{stroke:url(#linear-gradient-18);}.cls-26{stroke:url(#Gold_Effect-21);}.cls-27{stroke:url(#Gold_Effect-38);}.cls-28{stroke:url(#Gold_Effect-48);}.cls-29{stroke:url(#linear-gradient-74);}.cls-30{stroke:url(#linear-gradient-50);}.cls-31{opacity:.7;}.cls-32{stroke:url(#Gold_Effect-3);}.cls-33{stroke:url(#Gold_Effect);}.cls-34{stroke:url(#Gold_Effect-7);}.cls-35{stroke:url(#Gold_Effect-33);}.cls-36{stroke:url(#Gold_Effect-17);}.cls-37{stroke:url(#Gold_Effect-29);}.cls-38{stroke:url(#Gold_Effect-61);}.cls-39{stroke:url(#Gold_Effect-42);}.cls-40{stroke:url(#Gold_Effect-4);}.cls-41{stroke:url(#linear-gradient-13);}.cls-42{stroke:url(#linear-gradient-63);}.cls-43{stroke:url(#Gold_Effect-45);}.cls-44{stroke:url(#linear-gradient-29);}.cls-45{stroke:url(#linear-gradient-16);}.cls-46{stroke:url(#Gold_Effect-39);}.cls-47{stroke:url(#Gold_Effect-20);}.cls-48{stroke:url(#Gold_Effect-35);}.cls-49{stroke:url(#Gold_Effect-27);}.cls-50{stroke:url(#Gold_Effect-56);}.cls-51{stroke:url(#linear-gradient-69);}.cls-52{stroke:url(#linear-gradient-17);}.cls-53{stroke:url(#linear-gradient-48);}.cls-54{stroke:url(#Gold_Effect-32);}.cls-55{stroke:url(#Gold_Effect-6);}.cls-56{stroke:url(#linear-gradient-55);}.cls-57{stroke:url(#Gold_Effect-49);}.cls-58{stroke:url(#Gold_Effect-44);}.cls-59{stroke:url(#linear-gradient-30);}.cls-60{stroke:url(#linear-gradient-52);}.cls-61{stroke:url(#Gold_Effect-55);}.cls-62{stroke:url(#Gold_Effect-14);}.cls-63{stroke:url(#Gold_Effect-57);}.cls-64{stroke:url(#linear-gradient-7);}.cls-65{stroke:url(#linear-gradient-39);}.cls-66{stroke:url(#Gold_Effect-18);}.cls-67{stroke:url(#Gold_Effect-40);}.cls-68{stroke:url(#linear-gradient-21);}.cls-69{stroke:url(#Gold_Effect-54);}.cls-70{stroke:url(#linear-gradient-12);}.cls-71{stroke:url(#linear-gradient-67);}.cls-72{stroke:url(#linear-gradient-5);}.cls-73{stroke:url(#linear-gradient-38);}.cls-74{stroke:url(#Gold_Effect-23);}.cls-75{stroke:url(#linear-gradient-59);}.cls-76{stroke:url(#Gold_Effect-60);}.cls-77{stroke:url(#Gold_Effect-43);}.cls-78{stroke:url(#Gold_Effect-47);}.cls-79{stroke:url(#linear-gradient-60);}.cls-80{stroke:url(#linear-gradient-66);}.cls-81{stroke:url(#linear-gradient-51);}.cls-82{stroke:url(#linear-gradient-54);}.cls-83{stroke:url(#Gold_Effect-58);}.cls-84{stroke:url(#Gold_Effect-59);}.cls-85{stroke:url(#linear-gradient-32);}.cls-86{stroke:url(#linear-gradient-36);}.cls-87{stroke:url(#Gold_Effect-50);}.cls-88{stroke:url(#linear-gradient-20);}.cls-89{stroke:url(#linear-gradient-73);}.cls-90{stroke:url(#Gold_Effect-16);}.cls-91{stroke:url(#linear-gradient-24);}.cls-92{stroke:url(#linear-gradient-57);}.cls-93{stroke:url(#Gold_Effect-25);}.cls-94{stroke:url(#linear-gradient-33);}.cls-95{stroke:url(#linear-gradient-31);}.cls-96{stroke:url(#Gold_Effect-53);}.cls-97{stroke:url(#linear-gradient);}.cls-98{stroke:url(#linear-gradient-25);}.cls-99{stroke:url(#Gold_Effect-12);}.cls-100{stroke:url(#linear-gradient-68);}.cls-101{stroke:url(#Gold_Effect-11);}.cls-102{stroke:url(#linear-gradient-35);}.cls-103{stroke:url(#linear-gradient-62);}.cls-104{stroke:url(#Gold_Effect-41);}.cls-105{stroke:url(#linear-gradient-72);}.cls-106{stroke:url(#Gold_Effect-30);}.cls-107{stroke:url(#Gold_Effect-8);}.cls-108{stroke:url(#linear-gradient-75);}.cls-109{stroke:url(#linear-gradient-46);}.cls-110{stroke:url(#linear-gradient-71);}.cls-111{stroke:url(#linear-gradient-49);}.cls-112{stroke:url(#Gold_Effect-19);}.cls-113{stroke:url(#linear-gradient-27);}.cls-114{stroke:url(#Gold_Effect-34);}.cls-115{stroke:url(#linear-gradient-23);}.cls-116{stroke:url(#linear-gradient-14);}.cls-117{stroke:url(#linear-gradient-41);}.cls-118{stroke:url(#linear-gradient-44);}.cls-119{stroke:url(#Gold_Effect-9);}.cls-120{stroke:url(#linear-gradient-42);}.cls-121{stroke:url(#linear-gradient-34);}.cls-122{stroke:url(#linear-gradient-11);}.cls-123{stroke:url(#linear-gradient-8);}.cls-124{stroke:url(#Gold_Effect-2);}.cls-125{stroke:url(#linear-gradient-47);}.cls-126{stroke:url(#linear-gradient-65);}.cls-127{stroke:url(#linear-gradient-40);}.cls-128{stroke:url(#linear-gradient-10);}.cls-129{stroke:url(#Gold_Effect-36);}.cls-130{stroke:url(#linear-gradient-15);}.cls-131{stroke:url(#linear-gradient-43);}.cls-132{stroke:url(#Gold_Effect-22);}.cls-133{stroke:url(#Gold_Effect-15);}.cls-134{stroke:url(#linear-gradient-45);}.cls-135{stroke:url(#Gold_Effect-37);}.cls-136{stroke:url(#Gold_Effect-13);}.cls-137{stroke:url(#linear-gradient-56);}.cls-138{stroke:url(#Gold_Effect-51);}</style><linearGradient id="linear-gradient" x1="514.35" y1="955.99" x2="1768.8" y2="955.99" gradientTransform="translate(3036.16 1675.29) rotate(172.99) scale(1.86 1.3)" gradientUnits="userSpaceOnUse"><stop offset=".12" stop-color="#f6e27b"/><stop offset=".29" stop-color="#ca9a50"/><stop offset=".44" stop-color="#f6e27b"/><stop offset=".5" stop-color="#f6f2c1"/><stop offset=".57" stop-color="#f6e27b"/><stop offset=".74" stop-color="#ca9a50"/><stop offset=".85" stop-color="#f6e27b"/><stop offset="1" stop-color="#f6f2c1"/></linearGradient><linearGradient id="linear-gradient-2" x1="514.37" y1="959.59" x2="1769.45" y2="959.59" xlink:href="#linear-gradient"/><linearGradient id="linear-gradient-3" x1="514.39" y1="963.44" x2="1770.1" y2="963.44" xlink:href="#linear-gradient"/><linearGradient id="linear-gradient-4" x1="514.42" y1="967.59" x2="1770.75" y2="967.59" xlink:href="#linear-gradient"/><linearGradient id="linear-gradient-5" x1="514.45" y1="972.11" x2="1771.4" y2="972.11" xlink:href="#linear-gradient"/><linearGradient id="linear-gradient-6" x1="514.48" y1="977.02" x2="1772.04" y2="977.02" xlink:href="#linear-gradient"/><linearGradient id="linear-gradient-7" x1="514.51" y1="982.34" x2="1772.68" y2="982.34" xlink:href="#linear-gradient"/><linearGradient id="linear-gradient-8" x1="514.55" y1="988.02" x2="1773.32" y2="988.02" xlink:href="#linear-gradient"/><linearGradient id="linear-gradient-9" x1="514.59" y1="993.99" x2="1773.96" y2="993.99" xlink:href="#linear-gradient"/><linearGradient id="linear-gradient-10" x1="514.63" y1="1000.15" x2="1774.59" y2="1000.15" xlink:href="#linear-gradient"/><linearGradient id="linear-gradient-11" x1="514.67" y1="1006.41" x2="1775.22" y2="1006.41" xlink:href="#linear-gradient"/><linearGradient id="linear-gradient-12" x1="514.63" y1="1012.7" x2="1775.88" y2="1012.7" xlink:href="#linear-gradient"/><linearGradient id="linear-gradient-13" x1="514.58" y1="1018.96" x2="1776.58" y2="1018.96" xlink:href="#linear-gradient"/><linearGradient id="linear-gradient-14" x1="514.54" y1="1025.16" x2="1777.29" y2="1025.16" xlink:href="#linear-gradient"/><linearGradient id="linear-gradient-15" x1="514.51" y1="1031.31" x2="1778" y2="1031.31" xlink:href="#linear-gradient"/><linearGradient id="linear-gradient-16" x1="514.47" y1="1037.38" x2="1778.7" y2="1037.38" xlink:href="#linear-gradient"/><linearGradient id="linear-gradient-17" x1="514.44" y1="1038.27" x2="1779.41" y2="1038.27" xlink:href="#linear-gradient"/><linearGradient id="linear-gradient-18" x1="514.41" y1="1038.55" x2="1780.11" y2="1038.55" xlink:href="#linear-gradient"/><linearGradient id="linear-gradient-19" x1="514.39" y1="1038.78" x2="1780.81" y2="1038.78" xlink:href="#linear-gradient"/><linearGradient id="linear-gradient-20" x1="509.44" y1="1036.07" x2="1780.87" y2="1036.07" xlink:href="#linear-gradient"/><linearGradient id="linear-gradient-21" x1="504.5" y1="1033.36" x2="1780.94" y2="1033.36" xlink:href="#linear-gradient"/><linearGradient id="linear-gradient-22" x1="499.56" y1="1030.65" x2="1781" y2="1030.65" xlink:href="#linear-gradient"/><linearGradient id="linear-gradient-23" x1="494.62" y1="1027.94" x2="1781.06" y2="1027.94" xlink:href="#linear-gradient"/><linearGradient id="linear-gradient-24" x1="489.68" y1="1025.22" x2="1781.13" y2="1025.22" xlink:href="#linear-gradient"/><linearGradient id="linear-gradient-25" x1="484.74" y1="1022.51" x2="1781.19" y2="1022.51" xlink:href="#linear-gradient"/><linearGradient id="linear-gradient-26" x1="479.79" y1="1019.8" x2="1781.26" y2="1019.8" xlink:href="#linear-gradient"/><linearGradient id="linear-gradient-27" x1="474.85" y1="1017.09" x2="1781.32" y2="1017.09" xlink:href="#linear-gradient"/><linearGradient id="linear-gradient-28" x1="469.91" y1="1014.38" x2="1781.39" y2="1014.38" xlink:href="#linear-gradient"/><linearGradient id="linear-gradient-29" x1="464.97" y1="1011.68" x2="1781.45" y2="1011.68" xlink:href="#linear-gradient"/><linearGradient id="linear-gradient-30" x1="460.03" y1="1008.97" x2="1781.51" y2="1008.97" xlink:href="#linear-gradient"/><linearGradient id="linear-gradient-31" x1="455.08" y1="1006.26" x2="1781.58" y2="1006.26" xlink:href="#linear-gradient"/><linearGradient id="linear-gradient-32" x1="450.14" y1="1003.55" x2="1781.64" y2="1003.55" xlink:href="#linear-gradient"/><linearGradient id="linear-gradient-33" x1="445.2" y1="1000.84" x2="1781.71" y2="1000.84" xlink:href="#linear-gradient"/><linearGradient id="linear-gradient-34" x1="440.26" y1="998.13" x2="1781.77" y2="998.13" xlink:href="#linear-gradient"/><linearGradient id="linear-gradient-35" x1="435.32" y1="995.42" x2="1781.84" y2="995.42" xlink:href="#linear-gradient"/><linearGradient id="linear-gradient-36" x1="430.37" y1="992.72" x2="1781.9" y2="992.72" xlink:href="#linear-gradient"/><linearGradient id="linear-gradient-37" x1="425.43" y1="990.01" x2="1781.96" y2="990.01" xlink:href="#linear-gradient"/><linearGradient id="linear-gradient-38" x1="420.49" y1="987.3" x2="1782.03" y2="987.3" xlink:href="#linear-gradient"/><linearGradient id="linear-gradient-39" x1="415.55" y1="984.6" x2="1782.09" y2="984.6" xlink:href="#linear-gradient"/><linearGradient id="linear-gradient-40" x1="410.61" y1="981.89" x2="1782.16" y2="981.89" xlink:href="#linear-gradient"/><linearGradient id="linear-gradient-41" x1="405.67" y1="979.18" x2="1782.22" y2="979.18" xlink:href="#linear-gradient"/><linearGradient id="linear-gradient-42" x1="400.72" y1="976.48" x2="1782.28" y2="976.48" xlink:href="#linear-gradient"/><linearGradient id="linear-gradient-43" x1="395.78" y1="973.77" x2="1782.35" y2="973.77" xlink:href="#linear-gradient"/><linearGradient id="linear-gradient-44" x1="390.84" y1="971.07" x2="1782.41" y2="971.07" xlink:href="#linear-gradient"/><linearGradient id="linear-gradient-45" x1="385.9" y1="968.36" x2="1782.48" y2="968.36" xlink:href="#linear-gradient"/><linearGradient id="linear-gradient-46" x1="380.96" y1="965.66" x2="1782.54" y2="965.66" xlink:href="#linear-gradient"/><linearGradient id="linear-gradient-47" x1="376.01" y1="962.95" x2="1782.6" y2="962.95" xlink:href="#linear-gradient"/><linearGradient id="linear-gradient-48" x1="371.07" y1="960.25" x2="1782.67" y2="960.25" xlink:href="#linear-gradient"/><linearGradient id="linear-gradient-49" x1="366.13" y1="957.54" x2="1782.73" y2="957.54" xlink:href="#linear-gradient"/><linearGradient id="linear-gradient-50" x1="361.19" y1="954.84" x2="1782.8" y2="954.84" xlink:href="#linear-gradient"/><linearGradient id="linear-gradient-51" x1="356.25" y1="952.14" x2="1782.86" y2="952.14" xlink:href="#linear-gradient"/><linearGradient id="linear-gradient-52" x1="351.31" y1="949.43" x2="1782.92" y2="949.43" xlink:href="#linear-gradient"/><linearGradient id="linear-gradient-53" x1="346.36" y1="946.73" x2="1782.99" y2="946.73" xlink:href="#linear-gradient"/><linearGradient id="linear-gradient-54" x1="341.42" y1="944.03" x2="1783.05" y2="944.03" xlink:href="#linear-gradient"/><linearGradient id="linear-gradient-55" x1="336.48" y1="941.33" x2="1783.12" y2="941.33" xlink:href="#linear-gradient"/><linearGradient id="linear-gradient-56" x1="331.54" y1="938.22" x2="1783.18" y2="938.22" xlink:href="#linear-gradient"/><linearGradient id="linear-gradient-57" x1="326.6" y1="934.99" x2="1783.24" y2="934.99" xlink:href="#linear-gradient"/><linearGradient id="linear-gradient-58" x1="321.65" y1="931.76" x2="1783.31" y2="931.76" xlink:href="#linear-gradient"/><linearGradient id="linear-gradient-59" x1="316.71" y1="928.53" x2="1783.37" y2="928.53" xlink:href="#linear-gradient"/><linearGradient id="linear-gradient-60" x1="311.77" y1="925.3" x2="1783.43" y2="925.3" xlink:href="#linear-gradient"/><linearGradient id="linear-gradient-61" x1="306.83" y1="922.06" x2="1783.5" y2="922.06" xlink:href="#linear-gradient"/><linearGradient id="linear-gradient-62" x1="301.89" y1="918.82" x2="1783.56" y2="918.82" xlink:href="#linear-gradient"/><linearGradient id="linear-gradient-63" x1="296.94" y1="915.58" x2="1783.63" y2="915.58" xlink:href="#linear-gradient"/><linearGradient id="linear-gradient-64" x1="292" y1="912.34" x2="1783.69" y2="912.34" xlink:href="#linear-gradient"/><linearGradient id="linear-gradient-65" x1="287.06" y1="909.1" x2="1783.75" y2="909.1" xlink:href="#linear-gradient"/><linearGradient id="linear-gradient-66" x1="282.12" y1="905.85" x2="1783.82" y2="905.85" xlink:href="#linear-gradient"/><linearGradient id="linear-gradient-67" x1="277.18" y1="902.6" x2="1783.88" y2="902.6" xlink:href="#linear-gradient"/><linearGradient id="linear-gradient-68" x1="272.24" y1="899.36" x2="1783.94" y2="899.36" xlink:href="#linear-gradient"/><linearGradient id="linear-gradient-69" x1="267.29" y1="896.1" x2="1784.01" y2="896.1" xlink:href="#linear-gradient"/><linearGradient id="linear-gradient-70" x1="262.35" y1="892.85" x2="1784.07" y2="892.85" xlink:href="#linear-gradient"/><linearGradient id="linear-gradient-71" x1="257.41" y1="889.6" x2="1784.14" y2="889.6" xlink:href="#linear-gradient"/><linearGradient id="linear-gradient-72" x1="252.47" y1="886.34" x2="1784.2" y2="886.34" xlink:href="#linear-gradient"/><linearGradient id="linear-gradient-73" x1="247.53" y1="883.08" x2="1784.26" y2="883.08" xlink:href="#linear-gradient"/><linearGradient id="linear-gradient-74" x1="242.58" y1="879.82" x2="1784.33" y2="879.82" xlink:href="#linear-gradient"/><linearGradient id="linear-gradient-75" x1="237.64" y1="876.56" x2="1784.39" y2="876.56" xlink:href="#linear-gradient"/><linearGradient id="linear-gradient-76" x1="232.7" y1="873.3" x2="1784.46" y2="873.3" xlink:href="#linear-gradient"/><linearGradient id="Gold_Effect" x1="206.1" y1="-126.12" x2="700.4" y2="-126.12" gradientUnits="userSpaceOnUse"><stop offset="0" stop-color="#604442"/><stop offset=".03" stop-color="#846146"/><stop offset=".07" stop-color="#a27a4a"/><stop offset=".1" stop-color="#b88b4d"/><stop offset=".14" stop-color="#c5964f"/><stop offset=".17" stop-color="#ca9a50"/><stop offset=".44" stop-color="#f6e27b"/><stop offset=".5" stop-color="#f6f2c1"/><stop offset=".57" stop-color="#f6e27b"/><stop offset=".85" stop-color="#ca9a50"/><stop offset="1" stop-color="#604442"/></linearGradient><linearGradient id="Gold_Effect-2" x1="208.47" y1="-120.28" x2="696.28" y2="-120.28" xlink:href="#Gold_Effect"/><linearGradient id="Gold_Effect-3" x1="210.83" y1="-114.44" x2="692.15" y2="-114.44" xlink:href="#Gold_Effect"/><linearGradient id="Gold_Effect-4" x1="213.2" y1="-108.61" x2="688.03" y2="-108.61" xlink:href="#Gold_Effect"/><linearGradient id="Gold_Effect-5" x1="215.56" y1="-102.77" x2="683.91" y2="-102.77" xlink:href="#Gold_Effect"/><linearGradient id="Gold_Effect-6" x1="217.92" y1="-96.94" x2="679.78" y2="-96.94" xlink:href="#Gold_Effect"/><linearGradient id="Gold_Effect-7" x1="220.29" y1="-91.1" x2="675.66" y2="-91.1" xlink:href="#Gold_Effect"/><linearGradient id="Gold_Effect-8" x1="222.65" y1="-85.27" x2="671.54" y2="-85.27" xlink:href="#Gold_Effect"/><linearGradient id="Gold_Effect-9" x1="225.01" y1="-79.43" x2="667.41" y2="-79.43" xlink:href="#Gold_Effect"/><linearGradient id="Gold_Effect-10" x1="227.38" y1="-73.6" x2="663.29" y2="-73.6" xlink:href="#Gold_Effect"/><linearGradient id="Gold_Effect-11" x1="229.74" y1="-67.76" x2="659.17" y2="-67.76" xlink:href="#Gold_Effect"/><linearGradient id="Gold_Effect-12" x1="232.11" y1="-61.93" x2="655.04" y2="-61.93" xlink:href="#Gold_Effect"/><linearGradient id="Gold_Effect-13" x1="234.47" y1="-56.09" x2="650.92" y2="-56.09" xlink:href="#Gold_Effect"/><linearGradient id="Gold_Effect-14" x1="236.83" y1="-50.26" x2="646.79" y2="-50.26" xlink:href="#Gold_Effect"/><linearGradient id="Gold_Effect-15" x1="239.2" y1="-44.42" x2="642.67" y2="-44.42" xlink:href="#Gold_Effect"/><linearGradient id="Gold_Effect-16" x1="241.56" y1="-38.59" x2="638.55" y2="-38.59" xlink:href="#Gold_Effect"/><linearGradient id="Gold_Effect-17" x1="243.92" y1="-32.75" x2="634.42" y2="-32.75" xlink:href="#Gold_Effect"/><linearGradient id="Gold_Effect-18" x1="246.29" y1="-26.92" x2="630.3" y2="-26.92" xlink:href="#Gold_Effect"/><linearGradient id="Gold_Effect-19" x1="248.65" y1="-21.08" x2="626.18" y2="-21.08" xlink:href="#Gold_Effect"/><linearGradient id="Gold_Effect-20" x1="251.01" y1="-15.25" x2="622.05" y2="-15.25" xlink:href="#Gold_Effect"/><linearGradient id="Gold_Effect-21" x1="253.38" y1="-9.41" x2="617.93" y2="-9.41" xlink:href="#Gold_Effect"/><linearGradient id="Gold_Effect-22" x1="255.74" y1="-3.57" x2="613.81" y2="-3.57" xlink:href="#Gold_Effect"/><linearGradient id="Gold_Effect-23" x1="258.11" y1="2.26" x2="609.68" y2="2.26" xlink:href="#Gold_Effect"/><linearGradient id="Gold_Effect-24" x1="260.47" y1="8.1" x2="605.56" y2="8.1" xlink:href="#Gold_Effect"/><linearGradient id="Gold_Effect-25" x1="262.83" y1="13.93" x2="601.44" y2="13.93" xlink:href="#Gold_Effect"/><linearGradient id="Gold_Effect-26" x1="265.2" y1="19.77" x2="597.31" y2="19.77" xlink:href="#Gold_Effect"/><linearGradient id="Gold_Effect-27" x1="267.56" y1="25.6" x2="593.19" y2="25.6" xlink:href="#Gold_Effect"/><linearGradient id="Gold_Effect-28" x1="269.92" y1="31.44" x2="589.06" y2="31.44" xlink:href="#Gold_Effect"/><linearGradient id="Gold_Effect-29" x1="272.29" y1="37.27" x2="584.94" y2="37.27" xlink:href="#Gold_Effect"/><linearGradient id="Gold_Effect-30" x1="274.65" y1="43.11" x2="580.82" y2="43.11" xlink:href="#Gold_Effect"/><linearGradient id="Gold_Effect-31" x1="277.02" y1="48.94" x2="576.69" y2="48.94" xlink:href="#Gold_Effect"/><linearGradient id="Gold_Effect-32" x1="279.38" y1="54.78" x2="572.57" y2="54.78" xlink:href="#Gold_Effect"/><linearGradient id="Gold_Effect-33" x1="281.74" y1="60.61" x2="568.45" y2="60.61" xlink:href="#Gold_Effect"/><linearGradient id="Gold_Effect-34" x1="284.11" y1="66.45" x2="564.32" y2="66.45" xlink:href="#Gold_Effect"/><linearGradient id="Gold_Effect-35" x1="286.47" y1="72.28" x2="560.2" y2="72.28" xlink:href="#Gold_Effect"/><linearGradient id="Gold_Effect-36" x1="289.74" y1="68.62" x2="568.18" y2="68.62" xlink:href="#Gold_Effect"/><linearGradient id="Gold_Effect-37" x1="293" y1="64.96" x2="576.16" y2="64.96" xlink:href="#Gold_Effect"/><linearGradient id="Gold_Effect-38" x1="296.27" y1="61.3" x2="584.13" y2="61.3" xlink:href="#Gold_Effect"/><linearGradient id="Gold_Effect-39" x1="299.54" y1="57.63" x2="592.11" y2="57.63" xlink:href="#Gold_Effect"/><linearGradient id="Gold_Effect-40" x1="302.81" y1="53.97" x2="600.09" y2="53.97" xlink:href="#Gold_Effect"/><linearGradient id="Gold_Effect-41" x1="306.07" y1="50.31" x2="608.07" y2="50.31" xlink:href="#Gold_Effect"/><linearGradient id="Gold_Effect-42" x1="309.34" y1="46.64" x2="616.05" y2="46.64" xlink:href="#Gold_Effect"/><linearGradient id="Gold_Effect-43" x1="312.61" y1="42.98" x2="624.03" y2="42.98" xlink:href="#Gold_Effect"/><linearGradient id="Gold_Effect-44" x1="315.88" y1="39.32" x2="632.01" y2="39.32" xlink:href="#Gold_Effect"/><linearGradient id="Gold_Effect-45" x1="319.14" y1="35.65" x2="639.99" y2="35.65" xlink:href="#Gold_Effect"/><linearGradient id="Gold_Effect-46" x1="322.41" y1="31.99" x2="647.96" y2="31.99" xlink:href="#Gold_Effect"/><linearGradient id="Gold_Effect-47" x1="325.68" y1="28.33" x2="655.94" y2="28.33" xlink:href="#Gold_Effect"/><linearGradient id="Gold_Effect-48" x1="328.94" y1="24.67" x2="663.92" y2="24.67" xlink:href="#Gold_Effect"/><linearGradient id="Gold_Effect-49" x1="332.21" y1="21" x2="671.9" y2="21" xlink:href="#Gold_Effect"/><linearGradient id="Gold_Effect-50" x1="335.48" y1="17.34" x2="679.88" y2="17.34" xlink:href="#Gold_Effect"/><linearGradient id="Gold_Effect-51" x1="338.75" y1="13.68" x2="687.86" y2="13.68" xlink:href="#Gold_Effect"/><linearGradient id="Gold_Effect-52" x1="342.01" y1="10.01" x2="695.84" y2="10.01" xlink:href="#Gold_Effect"/><linearGradient id="Gold_Effect-53" x1="345.28" y1="6.35" x2="703.81" y2="6.35" xlink:href="#Gold_Effect"/><linearGradient id="Gold_Effect-54" x1="348.55" y1="2.69" x2="711.79" y2="2.69" xlink:href="#Gold_Effect"/><linearGradient id="Gold_Effect-55" x1="351.82" y1="-.97" x2="719.77" y2="-.97" xlink:href="#Gold_Effect"/><linearGradient id="Gold_Effect-56" x1="355.08" y1="-4.64" x2="727.75" y2="-4.64" xlink:href="#Gold_Effect"/><linearGradient id="Gold_Effect-57" x1="358.35" y1="-8.3" x2="735.73" y2="-8.3" xlink:href="#Gold_Effect"/><linearGradient id="Gold_Effect-58" x1="361.62" y1="-11.96" x2="743.71" y2="-11.96" xlink:href="#Gold_Effect"/><linearGradient id="Gold_Effect-59" x1="364.88" y1="-15.63" x2="751.69" y2="-15.63" xlink:href="#Gold_Effect"/><linearGradient id="Gold_Effect-60" x1="368.15" y1="-19.29" x2="759.66" y2="-19.29" xlink:href="#Gold_Effect"/><linearGradient id="Gold_Effect-61" x1="371.42" y1="-22.95" x2="767.64" y2="-22.95" xlink:href="#Gold_Effect"/></defs><g class="cls-31"><path class="cls-97" d="m-365.13,917.89C533.62,1223.09,902.72,107.84,1937.36,569.39"/><path class="cls-1" d="m1936.9,565.6c-520.01-203.88-865.97-74.39-1214.61,118.74-341.09,188.98-653.67,359.36-1089.5,226.73"/><path class="cls-4" d="m1936.43,561.82c-516.51-174.21-855.31-85.4-1215.03,115.27C368.78,873.85,58.37,1018.73-369.31,904.25"/><path class="cls-21" d="m1935.97,558.03c-513-144.55-844.65-96.41-1215.45,111.81C356.37,874.39,48.12,993.77-371.39,897.43"/><path class="cls-72" d="m1935.5,554.25c-509.5-114.89-833.99-107.42-1215.87,108.34C343.96,874.93,37.88,968.81-373.48,890.61"/><path class="cls-23" d="m1935.03,550.46c-506-85.23-823.32-118.43-1216.29,104.87C331.55,875.47,27.63,943.84-375.57,883.79"/><path class="cls-64" d="m1934.57,546.68c-502.49-55.57-812.66-129.44-1216.71,101.41C319.13,876.01,17.38,918.88-377.66,876.97"/><path class="cls-123" d="m1934.1,542.89c-498.99-25.91-802-140.45-1217.13,97.94C306.72,876.55,7.14,893.92-379.75,870.15"/><path class="cls-9" d="m1933.64,539.11c-495.49,3.75-791.34-151.46-1217.55,94.48C294.31,877.08-3.11,868.96-381.84,863.33"/><path class="cls-128" d="m1933.17,535.33c-491.99,33.41-780.68-162.47-1217.97,91.01C281.9,877.62-13.36,843.99-383.93,856.51"/><path class="cls-122" d="m1932.71,531.54c-488.48,63.07-770.02-173.48-1218.39,87.55C269.49,878.16-23.61,819.03-386.02,849.7"/><path class="cls-70" d="m1932.24,527.76c-484.98,92.73-759.35-184.49-1218.81,84.08C257.08,878.7-33.85,794.07-388.1,842.88"/><path class="cls-41" d="m1931.77,523.97c-481.48,122.39-748.69-195.5-1219.23,80.61C244.67,879.24-44.1,769.1-390.19,836.06"/><path class="cls-116" d="m1931.31,520.19c-477.97,152.05-738.03-206.51-1219.65,77.15C232.26,879.78-54.35,744.14-392.28,829.24"/><path class="cls-130" d="m1930.84,516.4c-474.47,181.71-727.37-217.52-1220.07,73.68C219.85,880.32-64.6,719.18-394.37,822.42"/><path class="cls-45" d="m1930.38,512.62c-470.97,211.38-716.71-228.53-1220.49,70.22-502.45,298.02-784.73,111.38-1106.35,232.77"/><path class="cls-52" d="m1929.91,508.83c-467.46,241.04-706.04-239.54-1220.91,66.75C195.02,881.39-85.09,669.25-398.55,808.78"/><path class="cls-25" d="m1929.45,505.05c-463.96,270.7-695.38-250.55-1221.33,63.29C182.61,881.93-95.34,644.29-400.64,801.96"/><path class="cls-17" d="m1928.98,501.27c-460.46,300.36-684.72-261.56-1221.75,59.82-537.03,321.38-812.82,58.24-1109.96,234.06"/><path class="cls-88" d="m1938.38,502.55c-460.99,300.32-690.44-258.66-1228.71,62.99-536.75,320.81-810.33,53.73-1112.09,233.09"/><path class="cls-68" d="m1947.79,503.84c-461.53,300.29-696.16-255.76-1235.67,66.15-536.47,320.24-807.85,49.22-1114.22,232.12"/><path class="cls-15" d="m1957.19,505.13c-462.07,300.25-701.88-252.86-1242.63,69.32-536.2,319.66-805.37,44.71-1116.36,231.15"/><path class="cls-115" d="m1966.59,506.42c-462.6,300.21-707.61-249.96-1249.59,72.49-535.92,319.09-802.89,40.2-1118.49,230.18"/><path class="cls-91" d="m1975.99,507.7c-463.14,300.18-713.33-247.05-1256.55,75.66-535.64,318.51-800.4,35.69-1120.62,229.21"/><path class="cls-98" d="m1985.4,508.99c-463.67,300.14-719.05-244.15-1263.5,78.82-535.36,317.94-797.92,31.18-1122.76,228.24"/><path class="cls-19" d="m1994.8,510.28c-464.21,300.11-724.77-241.25-1270.46,81.99-535.09,317.37-795.44,26.67-1124.89,227.27"/><path class="cls-113" d="m2004.2,511.57c-464.75,300.07-730.49-238.35-1277.42,85.16-534.81,316.79-792.96,22.16-1127.03,226.3"/><path class="cls-6" d="m2013.61,512.85c-465.28,300.04-736.21-235.45-1284.38,88.33-534.53,316.22-790.47,17.65-1129.16,225.33"/><path class="cls-44" d="m2023.01,514.14c-465.82,300-741.93-232.54-1291.34,91.49-534.26,315.64-787.99,13.14-1131.29,224.36"/><path class="cls-59" d="m2032.41,515.43c-466.35,299.96-747.65-229.64-1298.3,94.66-533.98,315.07-785.51,8.63-1133.43,223.39"/><path class="cls-95" d="m2041.82,516.72c-466.89,299.93-753.38-226.74-1305.26,97.83-533.7,314.5-783.03,4.12-1135.56,222.43"/><path class="cls-85" d="m2051.22,518.01c-467.43,299.89-759.1-223.84-1312.22,101-533.42,313.92-780.54-.39-1137.69,221.46"/><path class="cls-94" d="m2060.62,519.29c-467.96,299.86-764.82-220.93-1319.18,104.16-533.15,313.35-778.06-4.9-1139.83,220.49"/><path class="cls-121" d="m2070.02,520.58c-468.5,299.82-770.54-218.03-1326.14,107.33-532.87,312.77-775.58-9.41-1141.96,219.52"/><path class="cls-102" d="m2079.43,521.87c-469.04,299.78-776.26-215.13-1333.1,110.5-532.59,312.2-773.1-13.92-1144.09,218.55"/><path class="cls-86" d="m2088.83,523.16c-469.57,299.75-781.98-212.23-1340.06,113.67C216.46,948.45-21.84,618.39-397.45,854.4"/><path class="cls-10" d="m2098.23,524.44c-470.11,299.71-787.7-209.33-1347.02,116.83C219.18,952.33-16.91,618.34-397.14,857.88"/><path class="cls-73" d="m2107.64,525.73c-470.64,299.68-793.42-206.42-1353.97,120C221.9,956.21-11.99,618.28-396.83,861.37"/><path class="cls-65" d="m2117.04,527.02c-471.18,299.64-799.14-203.52-1360.93,123.17C224.62,960.09-7.06,618.23-396.52,864.86"/><path class="cls-127" d="m2126.44,528.31c-471.72,299.61-804.87-200.62-1367.89,126.34C227.34,963.97-2.13,618.17-396.21,868.34"/><path class="cls-117" d="m2135.85,529.59c-472.25,299.57-810.59-197.72-1374.85,129.5C230.07,967.85,2.79,618.12-395.9,871.83"/><path class="cls-120" d="m2145.25,530.88c-472.79,299.53-816.31-194.82-1381.81,132.67C232.79,971.74,7.72,618.06-395.59,875.31"/><path class="cls-131" d="m2154.65,532.17c-473.32,299.5-822.03-191.91-1388.77,135.84C235.51,975.62,12.64,618.01-395.28,878.8"/><path class="cls-118" d="m2164.05,533.46c-473.86,299.46-827.75-189.01-1395.73,139C238.23,979.5,17.57,617.95-394.97,882.28"/><path class="cls-134" d="m2173.46,534.75c-474.4,299.43-833.47-186.11-1402.69,142.17C240.95,983.38,22.5,617.9-394.66,885.77"/><path class="cls-109" d="m2182.86,536.03c-474.93,299.39-839.19-183.21-1409.65,145.34C243.67,987.26,27.42,617.84-394.35,889.26"/><path class="cls-125" d="m2192.26,537.32c-475.47,299.35-844.91-180.3-1416.61,148.51C246.39,991.14,32.35,617.79-394.04,892.74"/><path class="cls-53" d="m2201.67,538.61c-476,299.32-850.64-177.4-1423.57,151.67C249.11,995.02,37.27,617.73-393.73,896.23"/><path class="cls-111" d="m2211.07,539.9c-476.54,299.28-856.36-174.5-1430.53,154.84C251.83,998.9,42.2,617.68-393.42,899.71"/><path class="cls-30" d="m2220.47,541.18c-477.08,299.25-862.08-171.6-1437.49,158.01C254.55,1002.78,47.13,617.62-393.11,903.2"/><path class="cls-81" d="m2229.87,542.47c-477.61,299.21-867.8-168.7-1444.44,161.18C257.28,1006.67,52.05,617.57-392.8,906.68"/><path class="cls-60" d="m2239.28,543.76c-478.15,299.18-873.52-165.79-1451.4,164.34C260,1010.55,56.98,617.51-392.49,910.17"/><path class="cls-13" d="m2248.68,545.05c-478.68,299.14-879.24-162.89-1458.36,167.51C262.72,1014.43,61.91,617.46-392.18,913.65"/><path class="cls-82" d="m2258.08,546.33c-479.22,299.1-884.96-159.99-1465.32,170.68-527.32,301.3-725.93-99.61-1184.63,200.13"/><path class="cls-56" d="m2267.49,547.62c-479.76,299.07-890.68-157.09-1472.28,173.85-527.05,300.72-723.45-104.12-1186.77,199.16"/><path class="cls-137" d="m2276.89,548.91c-480.29,299.03-896.4-154.19-1479.24,177.01-526.77,300.15-720.96-108.63-1188.9,198.19"/><path class="cls-92" d="m2286.29,550.2c-480.83,299-902.13-151.28-1486.2,180.18-526.49,299.57-718.48-113.14-1191.03,197.22"/><path class="cls-14" d="m2295.7,551.49c-481.36,298.96-907.85-148.38-1493.16,183.35-526.21,299-716-117.65-1193.17,196.25"/><path class="cls-75" d="m2305.1,552.77c-481.9,298.92-913.57-145.48-1500.12,186.52-525.94,298.43-713.52-122.16-1195.3,195.28"/><path class="cls-79" d="m2314.5,554.06c-482.44,298.89-919.29-142.58-1507.08,189.68-525.66,297.85-711.03-126.67-1197.43,194.31"/><path class="cls-22" d="m2323.9,555.35c-482.97,298.85-925.01-139.67-1514.04,192.85-525.38,297.28-708.55-131.18-1199.57,193.34"/><path class="cls-103" d="m2333.31,556.64c-483.51,298.82-930.73-136.77-1521,196.02-525.1,296.7-706.07-135.69-1201.7,192.37"/><path class="cls-42" d="m2342.71,557.92c-484.04,298.78-936.45-133.87-1527.96,199.19-524.83,296.13-703.59-140.2-1203.84,191.4"/><path class="cls-7" d="m2352.11,559.21c-484.58,298.75-942.17-130.97-1534.91,202.35-524.55,295.56-701.1-144.71-1205.97,190.43"/><path class="cls-126" d="m2361.52,560.5c-485.12,298.71-947.9-128.07-1541.87,205.52-524.27,294.98-698.62-149.22-1208.1,189.46"/><path class="cls-80" d="m2370.92,561.79c-485.65,298.67-953.62-125.16-1548.83,208.69-524,294.41-696.14-153.73-1210.24,188.49"/><path class="cls-71" d="m2380.32,563.07c-486.19,298.64-959.34-122.26-1555.79,211.86-523.72,293.83-693.66-158.24-1212.37,187.52"/><path class="cls-100" d="m2389.72,564.36c-486.73,298.6-965.06-119.36-1562.75,215.02-523.44,293.26-691.17-162.75-1214.5,186.55"/><path class="cls-51" d="m2399.13,565.65c-487.26,298.57-970.78-116.46-1569.71,218.19-523.16,292.69-688.69-167.26-1216.64,185.58"/><path class="cls-18" d="m2408.53,566.94c-487.8,298.53-976.5-113.56-1576.67,221.36-522.89,292.11-686.21-171.77-1218.77,184.61"/><path class="cls-110" d="m2417.93,568.23c-488.33,298.49-982.22-110.65-1583.63,224.52-522.61,291.54-683.73-176.28-1220.9,183.64"/><path class="cls-105" d="m2427.34,569.51c-488.87,298.46-987.94-107.75-1590.59,227.69-522.33,290.96-681.24-180.79-1223.04,182.67"/><path class="cls-89" d="m2436.74,570.8c-489.41,298.42-993.66-104.85-1597.55,230.86-522.05,290.39-678.76-185.3-1225.17,181.71"/><path class="cls-29" d="m2446.14,572.09c-489.94,298.39-999.39-101.95-1604.51,234.03-521.78,289.82-676.28-189.81-1227.31,180.74"/><path class="cls-108" d="m2455.55,573.38c-490.48,298.35-1005.11-99.04-1611.47,237.19-521.5,289.24-673.8-194.32-1229.44,179.77"/><path class="cls-11" d="m2464.95,574.66c-491.01,298.32-1010.83-96.14-1618.42,240.36-521.22,288.67-671.31-198.83-1231.57,178.8"/></g><g class="cls-31"><circle class="cls-33" cx="453.25" cy="-126.12" r="246.65"/><circle class="cls-124" cx="452.37" cy="-120.28" r="243.4"/><circle class="cls-32" cx="451.49" cy="-114.44" r="240.16"/><circle class="cls-40" cx="450.61" cy="-108.61" r="236.92"/><circle class="cls-20" cx="449.73" cy="-102.77" r="233.67"/><circle class="cls-55" cx="448.85" cy="-96.94" r="230.43"/><circle class="cls-34" cx="447.97" cy="-91.1" r="227.19"/><circle class="cls-107" cx="447.09" cy="-85.27" r="223.94"/><circle class="cls-119" cx="446.21" cy="-79.43" r="220.7"/><circle class="cls-5" cx="445.33" cy="-73.6" r="217.46"/><circle class="cls-101" cx="444.45" cy="-67.76" r="214.21"/><circle class="cls-99" cx="443.57" cy="-61.93" r="210.97"/><circle class="cls-136" cx="442.69" cy="-56.09" r="207.72"/><circle class="cls-62" cx="441.81" cy="-50.26" r="204.48"/><circle class="cls-133" cx="440.93" cy="-44.42" r="201.24"/><circle class="cls-90" cx="440.05" cy="-38.59" r="197.99"/><circle class="cls-36" cx="439.17" cy="-32.75" r="194.75"/><circle class="cls-66" cx="438.29" cy="-26.92" r="191.51"/><circle class="cls-112" cx="437.41" cy="-21.08" r="188.26"/><circle class="cls-47" cx="436.53" cy="-15.25" r="185.02"/><circle class="cls-26" cx="435.65" cy="-9.41" r="181.78"/><circle class="cls-132" cx="434.77" cy="-3.57" r="178.53"/><circle class="cls-74" cx="433.89" cy="2.26" r="175.29"/><circle class="cls-8" cx="433.01" cy="8.1" r="172.04"/><circle class="cls-93" cx="432.13" cy="13.93" r="168.8"/><circle class="cls-3" cx="431.25" cy="19.77" r="165.56"/><circle class="cls-49" cx="430.37" cy="25.6" r="162.31"/><circle class="cls-12" cx="429.49" cy="31.44" r="159.07"/><circle class="cls-37" cx="428.61" cy="37.27" r="155.83"/><circle class="cls-106" cx="427.73" cy="43.11" r="152.58"/><circle class="cls-2" cx="426.85" cy="48.94" r="149.34"/><circle class="cls-54" cx="425.97" cy="54.78" r="146.1"/><circle class="cls-35" cx="425.09" cy="60.61" r="142.85"/><circle class="cls-114" cx="424.21" cy="66.45" r="139.61"/><circle class="cls-48" cx="423.33" cy="72.28" r="136.36"/><circle class="cls-129" cx="428.96" cy="68.62" r="138.72"/><circle class="cls-135" cx="434.58" cy="64.96" r="141.08"/><circle class="cls-27" cx="440.2" cy="61.3" r="143.43"/><circle class="cls-46" cx="445.83" cy="57.63" r="145.79"/><circle class="cls-67" cx="451.45" cy="53.97" r="148.14"/><circle class="cls-104" cx="457.07" cy="50.31" r="150.5"/><circle class="cls-39" cx="462.7" cy="46.64" r="152.85"/><circle class="cls-77" cx="468.32" cy="42.98" r="155.21"/><circle class="cls-58" cx="473.94" cy="39.32" r="157.57"/><circle class="cls-43" cx="479.56" cy="35.65" r="159.92"/><circle class="cls-24" cx="485.19" cy="31.99" r="162.28"/><circle class="cls-78" cx="490.81" cy="28.33" r="164.63"/><circle class="cls-28" cx="496.43" cy="24.67" r="166.99"/><circle class="cls-57" cx="502.06" cy="21" r="169.34"/><circle class="cls-87" cx="507.68" cy="17.34" r="171.7"/><circle class="cls-138" cx="513.3" cy="13.68" r="174.06"/><circle class="cls-16" cx="518.92" cy="10.01" r="176.41"/><circle class="cls-96" cx="524.55" cy="6.35" r="178.77"/><circle class="cls-69" cx="530.17" cy="2.69" r="181.12"/><circle class="cls-61" cx="535.79" cy="-.97" r="183.48"/><circle class="cls-50" cx="541.42" cy="-4.64" r="185.83"/><circle class="cls-63" cx="547.04" cy="-8.3" r="188.19"/><circle class="cls-83" cx="552.66" cy="-11.96" r="190.55"/><circle class="cls-84" cx="558.28" cy="-15.63" r="192.9"/><circle class="cls-76" cx="563.91" cy="-19.29" r="195.26"/><circle class="cls-38" cx="569.53" cy="-22.95" r="197.61"/></g></svg>