<?xml version="1.0" encoding="UTF-8"?><svg id="Layer_1" xmlns="http://www.w3.org/2000/svg" xmlns:xlink="http://www.w3.org/1999/xlink" viewBox="0 0 1920 1080"><defs><style>.cls-1{stroke:url(#linear-gradient-2);}.cls-1,.cls-2,.cls-3,.cls-4,.cls-5,.cls-6,.cls-7,.cls-8,.cls-9,.cls-10,.cls-11,.cls-12,.cls-13,.cls-14,.cls-15,.cls-16,.cls-17,.cls-18,.cls-19,.cls-20,.cls-21,.cls-22,.cls-23,.cls-24,.cls-25,.cls-26,.cls-27,.cls-28,.cls-29,.cls-30,.cls-31,.cls-32,.cls-33,.cls-34,.cls-35,.cls-36,.cls-37,.cls-38,.cls-39,.cls-40,.cls-41,.cls-42,.cls-43,.cls-44,.cls-45,.cls-46,.cls-47,.cls-48,.cls-49,.cls-50,.cls-51,.cls-52,.cls-53,.cls-54,.cls-55,.cls-56,.cls-57,.cls-58,.cls-59,.cls-60,.cls-61,.cls-62,.cls-63,.cls-64,.cls-65,.cls-66,.cls-67,.cls-68,.cls-69,.cls-70,.cls-71,.cls-72,.cls-73,.cls-74,.cls-75,.cls-76,.cls-77,.cls-78,.cls-79,.cls-80,.cls-81,.cls-82,.cls-83,.cls-84,.cls-85,.cls-86,.cls-87,.cls-88,.cls-89,.cls-90,.cls-91,.cls-92,.cls-93,.cls-94,.cls-95,.cls-96,.cls-97,.cls-98,.cls-99,.cls-100,.cls-101,.cls-102,.cls-103,.cls-104,.cls-105,.cls-106,.cls-107,.cls-108,.cls-109,.cls-110,.cls-111,.cls-112,.cls-113,.cls-114,.cls-115,.cls-116,.cls-117,.cls-118,.cls-119,.cls-120,.cls-121,.cls-122,.cls-123,.cls-124,.cls-125,.cls-126,.cls-127,.cls-128{fill:none;}.cls-1,.cls-2,.cls-3,.cls-4,.cls-5,.cls-6,.cls-7,.cls-8,.cls-9,.cls-10,.cls-11,.cls-12,.cls-13,.cls-14,.cls-15,.cls-16,.cls-17,.cls-18,.cls-19,.cls-20,.cls-21,.cls-22,.cls-23,.cls-24,.cls-25,.cls-26,.cls-27,.cls-29,.cls-30,.cls-31,.cls-32,.cls-33,.cls-34,.cls-35,.cls-36,.cls-37,.cls-38,.cls-39,.cls-40,.cls-41,.cls-42,.cls-43,.cls-44,.cls-45,.cls-46,.cls-47,.cls-48,.cls-49,.cls-50,.cls-51,.cls-52,.cls-53,.cls-54,.cls-55,.cls-56,.cls-57,.cls-58,.cls-59,.cls-60,.cls-61,.cls-62,.cls-63,.cls-64,.cls-65,.cls-66,.cls-67,.cls-68,.cls-69,.cls-70,.cls-71,.cls-72,.cls-73,.cls-74,.cls-75,.cls-76,.cls-77,.cls-78,.cls-79,.cls-80,.cls-81,.cls-82,.cls-83,.cls-84,.cls-85,.cls-86,.cls-87,.cls-88,.cls-89,.cls-90,.cls-91,.cls-92,.cls-93,.cls-94,.cls-95,.cls-96,.cls-97,.cls-98,.cls-99,.cls-100,.cls-101,.cls-102,.cls-103,.cls-104,.cls-105,.cls-106,.cls-107,.cls-108,.cls-109,.cls-110,.cls-111,.cls-112,.cls-113,.cls-114,.cls-115,.cls-116,.cls-117,.cls-118,.cls-119,.cls-120,.cls-121,.cls-122,.cls-123,.cls-124,.cls-125,.cls-126,.cls-127,.cls-128{stroke-miterlimit:10;}.cls-2{stroke:url(#Gold_Effect-31);}.cls-3{stroke:url(#Gold_Effect-26);}.cls-4{stroke:url(#linear-gradient-3);}.cls-5{stroke:url(#Gold_Effect-10);}.cls-6{stroke:url(#linear-gradient-28);}.cls-7{stroke:url(#linear-gradient-64);}.cls-129{fill:url(#linear-gradient-69);}.cls-129,.cls-130{opacity:.8;}.cls-8{stroke:url(#Gold_Effect-24);}.cls-9{stroke:url(#linear-gradient-9);}.cls-10{stroke:url(#linear-gradient-37);}.cls-11{stroke:url(#Gold_Effect-28);}.cls-12{stroke:url(#linear-gradient-53);}.cls-13{stroke:url(#linear-gradient-58);}.cls-14{stroke:url(#linear-gradient-22);}.cls-15{stroke:url(#Gold_Effect-52);}.cls-16{stroke:url(#linear-gradient-19);}.cls-17{stroke:url(#linear-gradient-26);}.cls-18{stroke:url(#Gold_Effect-5);}.cls-19{stroke:url(#linear-gradient-4);}.cls-20{stroke:url(#linear-gradient-61);}.cls-21{stroke:url(#linear-gradient-6);}.cls-22{stroke:url(#Gold_Effect-46);}.cls-23{stroke:url(#linear-gradient-18);}.cls-24{stroke:url(#Gold_Effect-21);}.cls-25{stroke:url(#Gold_Effect-38);}.cls-26{stroke:url(#Gold_Effect-48);}.cls-27{stroke:url(#linear-gradient-50);}.cls-28{opacity:.7;}.cls-29{stroke:url(#Gold_Effect-3);}.cls-30{stroke:url(#Gold_Effect);}.cls-31{stroke:url(#Gold_Effect-7);}.cls-32{stroke:url(#Gold_Effect-33);}.cls-33{stroke:url(#Gold_Effect-17);}.cls-34{stroke:url(#Gold_Effect-29);}.cls-35{stroke:url(#Gold_Effect-61);}.cls-36{stroke:url(#Gold_Effect-42);}.cls-37{stroke:url(#Gold_Effect-4);}.cls-38{stroke:url(#linear-gradient-13);}.cls-39{stroke:url(#linear-gradient-63);}.cls-40{stroke:url(#Gold_Effect-45);}.cls-131{fill:url(#linear-gradient-71);opacity:.92;}.cls-41{stroke:url(#linear-gradient-29);}.cls-42{stroke:url(#linear-gradient-16);}.cls-43{stroke:url(#Gold_Effect-39);}.cls-44{stroke:url(#Gold_Effect-20);}.cls-45{stroke:url(#Gold_Effect-35);}.cls-46{stroke:url(#Gold_Effect-27);}.cls-47{stroke:url(#Gold_Effect-56);}.cls-48{stroke:url(#linear-gradient-17);}.cls-49{stroke:url(#linear-gradient-48);}.cls-50{stroke:url(#Gold_Effect-32);}.cls-51{stroke:url(#Gold_Effect-6);}.cls-52{stroke:url(#linear-gradient-55);}.cls-53{stroke:url(#Gold_Effect-49);}.cls-54{stroke:url(#Gold_Effect-44);}.cls-55{stroke:url(#linear-gradient-30);}.cls-56{stroke:url(#linear-gradient-52);}.cls-57{stroke:url(#Gold_Effect-55);}.cls-58{stroke:url(#Gold_Effect-14);}.cls-59{stroke:url(#Gold_Effect-57);}.cls-60{stroke:url(#linear-gradient-7);}.cls-61{stroke:url(#linear-gradient-39);}.cls-62{stroke:url(#Gold_Effect-18);}.cls-63{stroke:url(#Gold_Effect-40);}.cls-64{stroke:url(#linear-gradient-21);}.cls-65{stroke:url(#Gold_Effect-54);}.cls-66{stroke:url(#linear-gradient-12);}.cls-67{stroke:url(#linear-gradient-5);}.cls-68{stroke:url(#linear-gradient-38);}.cls-69{stroke:url(#Gold_Effect-23);}.cls-70{stroke:url(#linear-gradient-59);}.cls-71{stroke:url(#Gold_Effect-60);}.cls-72{stroke:url(#Gold_Effect-43);}.cls-73{stroke:url(#Gold_Effect-47);}.cls-74{stroke:url(#linear-gradient-60);}.cls-75{stroke:url(#linear-gradient-66);}.cls-76{stroke:url(#linear-gradient-51);}.cls-77{stroke:url(#linear-gradient-54);}.cls-78{stroke:url(#Gold_Effect-58);}.cls-79{stroke:url(#Gold_Effect-59);}.cls-80{stroke:url(#linear-gradient-32);}.cls-81{stroke:url(#linear-gradient-36);}.cls-82{stroke:url(#Gold_Effect-50);}.cls-83{stroke:url(#linear-gradient-20);}.cls-84{stroke:url(#Gold_Effect-16);}.cls-85{stroke:url(#linear-gradient-24);}.cls-86{stroke:url(#linear-gradient-57);}.cls-132{fill:url(#linear-gradient-72);opacity:.65;}.cls-87{stroke:url(#Gold_Effect-25);}.cls-88{stroke:url(#linear-gradient-33);}.cls-89{stroke:url(#linear-gradient-31);}.cls-90{stroke:url(#Gold_Effect-53);}.cls-91{stroke:url(#linear-gradient);}.cls-92{stroke:url(#linear-gradient-25);}.cls-93{stroke:url(#Gold_Effect-12);}.cls-133{fill:url(#linear-gradient-73);opacity:.5;}.cls-94{stroke:url(#Gold_Effect-11);}.cls-134{fill:url(#linear-gradient-67);opacity:.75;}.cls-95{stroke:url(#linear-gradient-35);}.cls-96{stroke:url(#linear-gradient-62);}.cls-97{stroke:url(#Gold_Effect-41);}.cls-98{stroke:url(#Gold_Effect-30);}.cls-99{stroke:url(#Gold_Effect-8);}.cls-100{stroke:url(#linear-gradient-46);}.cls-130{fill:url(#linear-gradient-68);}.cls-101{stroke:url(#linear-gradient-49);}.cls-102{stroke:url(#Gold_Effect-19);}.cls-103{stroke:url(#linear-gradient-27);}.cls-104{stroke:url(#Gold_Effect-34);}.cls-105{stroke:url(#linear-gradient-23);}.cls-106{stroke:url(#linear-gradient-14);}.cls-107{stroke:url(#linear-gradient-41);}.cls-108{stroke:url(#linear-gradient-44);}.cls-109{stroke:url(#Gold_Effect-9);}.cls-110{stroke:url(#linear-gradient-42);}.cls-111{stroke:url(#linear-gradient-34);}.cls-112{stroke:url(#linear-gradient-11);}.cls-113{stroke:url(#linear-gradient-8);}.cls-114{stroke:url(#Gold_Effect-2);}.cls-115{stroke:url(#linear-gradient-47);}.cls-116{stroke:url(#linear-gradient-65);}.cls-117{stroke:url(#linear-gradient-40);}.cls-135{fill:url(#linear-gradient-70);opacity:.4;}.cls-118{stroke:url(#linear-gradient-10);}.cls-119{stroke:url(#Gold_Effect-36);}.cls-120{stroke:url(#linear-gradient-15);}.cls-121{stroke:url(#linear-gradient-43);}.cls-122{stroke:url(#Gold_Effect-22);}.cls-123{stroke:url(#Gold_Effect-15);}.cls-124{stroke:url(#linear-gradient-45);}.cls-125{stroke:url(#Gold_Effect-37);}.cls-126{stroke:url(#Gold_Effect-13);}.cls-127{stroke:url(#linear-gradient-56);}.cls-128{stroke:url(#Gold_Effect-51);}</style><linearGradient id="linear-gradient" x1="292.51" y1="911.53" x2="1546.96" y2="911.53" gradientTransform="translate(2533.27 1592.51) rotate(172.99) scale(1.58 1.14)" gradientUnits="userSpaceOnUse"><stop offset=".12" stop-color="#f6e27b"/><stop offset=".29" stop-color="#ca9a50"/><stop offset=".44" stop-color="#f6e27b"/><stop offset=".5" stop-color="#f6f2c1"/><stop offset=".57" stop-color="#f6e27b"/><stop offset=".74" stop-color="#ca9a50"/><stop offset=".85" stop-color="#f6e27b"/><stop offset="1" stop-color="#f6f2c1"/></linearGradient><linearGradient id="linear-gradient-2" x1="292.53" y1="915.6" x2="1547.7" y2="915.6" xlink:href="#linear-gradient"/><linearGradient id="linear-gradient-3" x1="292.56" y1="919.99" x2="1548.43" y2="919.99" xlink:href="#linear-gradient"/><linearGradient id="linear-gradient-4" x1="292.59" y1="924.77" x2="1549.16" y2="924.77" xlink:href="#linear-gradient"/><linearGradient id="linear-gradient-5" x1="292.62" y1="930.04" x2="1549.88" y2="930.04" xlink:href="#linear-gradient"/><linearGradient id="linear-gradient-6" x1="292.66" y1="935.82" x2="1550.61" y2="935.82" xlink:href="#linear-gradient"/><linearGradient id="linear-gradient-7" x1="292.7" y1="942.09" x2="1551.32" y2="942.09" xlink:href="#linear-gradient"/><linearGradient id="linear-gradient-8" x1="292.75" y1="948.75" x2="1552.04" y2="948.75" xlink:href="#linear-gradient"/><linearGradient id="linear-gradient-9" x1="292.8" y1="955.66" x2="1552.75" y2="955.66" xlink:href="#linear-gradient"/><linearGradient id="linear-gradient-10" x1="292.83" y1="962.71" x2="1553.47" y2="962.71" xlink:href="#linear-gradient"/><linearGradient id="linear-gradient-11" x1="292.78" y1="969.78" x2="1554.22" y2="969.78" xlink:href="#linear-gradient"/><linearGradient id="linear-gradient-12" x1="292.73" y1="976.81" x2="1555.01" y2="976.81" xlink:href="#linear-gradient"/><linearGradient id="linear-gradient-13" x1="292.69" y1="983.77" x2="1555.81" y2="983.77" xlink:href="#linear-gradient"/><linearGradient id="linear-gradient-14" x1="292.65" y1="990.64" x2="1556.6" y2="990.64" xlink:href="#linear-gradient"/><linearGradient id="linear-gradient-15" x1="292.61" y1="993.72" x2="1557.39" y2="993.72" xlink:href="#linear-gradient"/><linearGradient id="linear-gradient-16" x1="292.58" y1="994.06" x2="1558.18" y2="994.06" xlink:href="#linear-gradient"/><linearGradient id="linear-gradient-17" x1="292.55" y1="994.32" x2="1558.97" y2="994.32" xlink:href="#linear-gradient"/><linearGradient id="linear-gradient-18" x1="286.8" y1="991.17" x2="1559.04" y2="991.17" xlink:href="#linear-gradient"/><linearGradient id="linear-gradient-19" x1="281.05" y1="988.02" x2="1559.12" y2="988.02" xlink:href="#linear-gradient"/><linearGradient id="linear-gradient-20" x1="275.3" y1="984.86" x2="1559.19" y2="984.86" xlink:href="#linear-gradient"/><linearGradient id="linear-gradient-21" x1="269.55" y1="981.71" x2="1559.27" y2="981.71" xlink:href="#linear-gradient"/><linearGradient id="linear-gradient-22" x1="263.81" y1="978.56" x2="1559.34" y2="978.56" xlink:href="#linear-gradient"/><linearGradient id="linear-gradient-23" x1="258.06" y1="975.4" x2="1559.42" y2="975.4" xlink:href="#linear-gradient"/><linearGradient id="linear-gradient-24" x1="252.31" y1="972.25" x2="1559.49" y2="972.25" xlink:href="#linear-gradient"/><linearGradient id="linear-gradient-25" x1="246.56" y1="969.1" x2="1559.57" y2="969.1" xlink:href="#linear-gradient"/><linearGradient id="linear-gradient-26" x1="240.81" y1="965.95" x2="1559.64" y2="965.95" xlink:href="#linear-gradient"/><linearGradient id="linear-gradient-27" x1="235.06" y1="962.8" x2="1559.72" y2="962.8" xlink:href="#linear-gradient"/><linearGradient id="linear-gradient-28" x1="229.31" y1="959.65" x2="1559.79" y2="959.65" xlink:href="#linear-gradient"/><linearGradient id="linear-gradient-29" x1="223.57" y1="956.5" x2="1559.87" y2="956.5" xlink:href="#linear-gradient"/><linearGradient id="linear-gradient-30" x1="217.82" y1="953.35" x2="1559.94" y2="953.35" xlink:href="#linear-gradient"/><linearGradient id="linear-gradient-31" x1="212.07" y1="950.2" x2="1560.02" y2="950.2" xlink:href="#linear-gradient"/><linearGradient id="linear-gradient-32" x1="206.32" y1="947.05" x2="1560.09" y2="947.05" xlink:href="#linear-gradient"/><linearGradient id="linear-gradient-33" x1="200.57" y1="943.9" x2="1560.17" y2="943.9" xlink:href="#linear-gradient"/><linearGradient id="linear-gradient-34" x1="194.82" y1="940.75" x2="1560.24" y2="940.75" xlink:href="#linear-gradient"/><linearGradient id="linear-gradient-35" x1="189.07" y1="937.6" x2="1560.32" y2="937.6" xlink:href="#linear-gradient"/><linearGradient id="linear-gradient-36" x1="183.32" y1="934.45" x2="1560.39" y2="934.45" xlink:href="#linear-gradient"/><linearGradient id="linear-gradient-37" x1="177.58" y1="931.3" x2="1560.46" y2="931.3" xlink:href="#linear-gradient"/><linearGradient id="linear-gradient-38" x1="171.83" y1="928.16" x2="1560.54" y2="928.16" xlink:href="#linear-gradient"/><linearGradient id="linear-gradient-39" x1="166.08" y1="925.01" x2="1560.61" y2="925.01" xlink:href="#linear-gradient"/><linearGradient id="linear-gradient-40" x1="160.33" y1="921.86" x2="1560.69" y2="921.86" xlink:href="#linear-gradient"/><linearGradient id="linear-gradient-41" x1="154.58" y1="918.72" x2="1560.76" y2="918.72" xlink:href="#linear-gradient"/><linearGradient id="linear-gradient-42" x1="148.83" y1="915.57" x2="1560.84" y2="915.57" xlink:href="#linear-gradient"/><linearGradient id="linear-gradient-43" x1="143.08" y1="912.43" x2="1560.91" y2="912.43" xlink:href="#linear-gradient"/><linearGradient id="linear-gradient-44" x1="137.33" y1="909.28" x2="1560.98" y2="909.28" xlink:href="#linear-gradient"/><linearGradient id="linear-gradient-45" x1="131.59" y1="906.14" x2="1561.06" y2="906.14" xlink:href="#linear-gradient"/><linearGradient id="linear-gradient-46" x1="125.84" y1="902.99" x2="1561.13" y2="902.99" xlink:href="#linear-gradient"/><linearGradient id="linear-gradient-47" x1="120.09" y1="899.85" x2="1561.21" y2="899.85" xlink:href="#linear-gradient"/><linearGradient id="linear-gradient-48" x1="114.34" y1="896.71" x2="1561.28" y2="896.71" xlink:href="#linear-gradient"/><linearGradient id="linear-gradient-49" x1="108.59" y1="893.04" x2="1561.36" y2="893.04" xlink:href="#linear-gradient"/><linearGradient id="linear-gradient-50" x1="102.84" y1="889.28" x2="1561.43" y2="889.28" xlink:href="#linear-gradient"/><linearGradient id="linear-gradient-51" x1="97.09" y1="885.53" x2="1561.51" y2="885.53" xlink:href="#linear-gradient"/><linearGradient id="linear-gradient-52" x1="91.35" y1="881.77" x2="1561.58" y2="881.77" xlink:href="#linear-gradient"/><linearGradient id="linear-gradient-53" x1="85.6" y1="878" x2="1561.65" y2="878" xlink:href="#linear-gradient"/><linearGradient id="linear-gradient-54" x1="79.85" y1="874.24" x2="1561.73" y2="874.24" xlink:href="#linear-gradient"/><linearGradient id="linear-gradient-55" x1="74.1" y1="870.47" x2="1561.8" y2="870.47" xlink:href="#linear-gradient"/><linearGradient id="linear-gradient-56" x1="68.35" y1="866.69" x2="1561.88" y2="866.69" xlink:href="#linear-gradient"/><linearGradient id="linear-gradient-57" x1="62.6" y1="862.92" x2="1561.95" y2="862.92" xlink:href="#linear-gradient"/><linearGradient id="linear-gradient-58" x1="56.85" y1="859.14" x2="1562.02" y2="859.14" xlink:href="#linear-gradient"/><linearGradient id="linear-gradient-59" x1="51.1" y1="855.36" x2="1562.1" y2="855.36" xlink:href="#linear-gradient"/><linearGradient id="linear-gradient-60" x1="45.36" y1="851.58" x2="1562.17" y2="851.58" xlink:href="#linear-gradient"/><linearGradient id="linear-gradient-61" x1="39.61" y1="847.8" x2="1562.25" y2="847.8" xlink:href="#linear-gradient"/><linearGradient id="linear-gradient-62" x1="33.86" y1="844.01" x2="1562.32" y2="844.01" xlink:href="#linear-gradient"/><linearGradient id="linear-gradient-63" x1="28.11" y1="840.22" x2="1562.4" y2="840.22" xlink:href="#linear-gradient"/><linearGradient id="linear-gradient-64" x1="22.36" y1="836.43" x2="1562.47" y2="836.43" xlink:href="#linear-gradient"/><linearGradient id="linear-gradient-65" x1="16.61" y1="832.64" x2="1562.54" y2="832.64" xlink:href="#linear-gradient"/><linearGradient id="linear-gradient-66" x1="10.86" y1="828.84" x2="1562.62" y2="828.84" xlink:href="#linear-gradient"/><linearGradient id="Gold_Effect" x1="206.1" y1="-126.12" x2="700.4" y2="-126.12" gradientUnits="userSpaceOnUse"><stop offset="0" stop-color="#604442"/><stop offset=".03" stop-color="#846146"/><stop offset=".07" stop-color="#a27a4a"/><stop offset=".1" stop-color="#b88b4d"/><stop offset=".14" stop-color="#c5964f"/><stop offset=".17" stop-color="#ca9a50"/><stop offset=".44" stop-color="#f6e27b"/><stop offset=".5" stop-color="#f6f2c1"/><stop offset=".57" stop-color="#f6e27b"/><stop offset=".85" stop-color="#ca9a50"/><stop offset="1" stop-color="#604442"/></linearGradient><linearGradient id="Gold_Effect-2" x1="208.47" y1="-120.28" x2="696.28" y2="-120.28" xlink:href="#Gold_Effect"/><linearGradient id="Gold_Effect-3" x1="210.83" y1="-114.44" x2="692.15" y2="-114.44" xlink:href="#Gold_Effect"/><linearGradient id="Gold_Effect-4" x1="213.2" y1="-108.61" x2="688.03" y2="-108.61" xlink:href="#Gold_Effect"/><linearGradient id="Gold_Effect-5" x1="215.56" y1="-102.77" x2="683.91" y2="-102.77" xlink:href="#Gold_Effect"/><linearGradient id="Gold_Effect-6" x1="217.92" y1="-96.94" x2="679.78" y2="-96.94" xlink:href="#Gold_Effect"/><linearGradient id="Gold_Effect-7" x1="220.29" y1="-91.1" x2="675.66" y2="-91.1" xlink:href="#Gold_Effect"/><linearGradient id="Gold_Effect-8" x1="222.65" y1="-85.27" x2="671.54" y2="-85.27" xlink:href="#Gold_Effect"/><linearGradient id="Gold_Effect-9" x1="225.01" y1="-79.43" x2="667.41" y2="-79.43" xlink:href="#Gold_Effect"/><linearGradient id="Gold_Effect-10" x1="227.38" y1="-73.6" x2="663.29" y2="-73.6" xlink:href="#Gold_Effect"/><linearGradient id="Gold_Effect-11" x1="229.74" y1="-67.76" x2="659.17" y2="-67.76" xlink:href="#Gold_Effect"/><linearGradient id="Gold_Effect-12" x1="232.11" y1="-61.93" x2="655.04" y2="-61.93" xlink:href="#Gold_Effect"/><linearGradient id="Gold_Effect-13" x1="234.47" y1="-56.09" x2="650.92" y2="-56.09" xlink:href="#Gold_Effect"/><linearGradient id="Gold_Effect-14" x1="236.83" y1="-50.26" x2="646.79" y2="-50.26" xlink:href="#Gold_Effect"/><linearGradient id="Gold_Effect-15" x1="239.2" y1="-44.42" x2="642.67" y2="-44.42" xlink:href="#Gold_Effect"/><linearGradient id="Gold_Effect-16" x1="241.56" y1="-38.59" x2="638.55" y2="-38.59" xlink:href="#Gold_Effect"/><linearGradient id="Gold_Effect-17" x1="243.92" y1="-32.75" x2="634.42" y2="-32.75" xlink:href="#Gold_Effect"/><linearGradient id="Gold_Effect-18" x1="246.29" y1="-26.92" x2="630.3" y2="-26.92" xlink:href="#Gold_Effect"/><linearGradient id="Gold_Effect-19" x1="248.65" y1="-21.08" x2="626.18" y2="-21.08" xlink:href="#Gold_Effect"/><linearGradient id="Gold_Effect-20" x1="251.01" y1="-15.25" x2="622.05" y2="-15.25" xlink:href="#Gold_Effect"/><linearGradient id="Gold_Effect-21" x1="253.38" y1="-9.41" x2="617.93" y2="-9.41" xlink:href="#Gold_Effect"/><linearGradient id="Gold_Effect-22" x1="255.74" y1="-3.57" x2="613.81" y2="-3.57" xlink:href="#Gold_Effect"/><linearGradient id="Gold_Effect-23" x1="258.11" y1="2.26" x2="609.68" y2="2.26" xlink:href="#Gold_Effect"/><linearGradient id="Gold_Effect-24" x1="260.47" y1="8.1" x2="605.56" y2="8.1" xlink:href="#Gold_Effect"/><linearGradient id="Gold_Effect-25" x1="262.83" y1="13.93" x2="601.44" y2="13.93" xlink:href="#Gold_Effect"/><linearGradient id="Gold_Effect-26" x1="265.2" y1="19.77" x2="597.31" y2="19.77" xlink:href="#Gold_Effect"/><linearGradient id="Gold_Effect-27" x1="267.56" y1="25.6" x2="593.19" y2="25.6" xlink:href="#Gold_Effect"/><linearGradient id="Gold_Effect-28" x1="269.92" y1="31.44" x2="589.06" y2="31.44" xlink:href="#Gold_Effect"/><linearGradient id="Gold_Effect-29" x1="272.29" y1="37.27" x2="584.94" y2="37.27" xlink:href="#Gold_Effect"/><linearGradient id="Gold_Effect-30" x1="274.65" y1="43.11" x2="580.82" y2="43.11" xlink:href="#Gold_Effect"/><linearGradient id="Gold_Effect-31" x1="277.02" y1="48.94" x2="576.69" y2="48.94" xlink:href="#Gold_Effect"/><linearGradient id="Gold_Effect-32" x1="279.38" y1="54.78" x2="572.57" y2="54.78" xlink:href="#Gold_Effect"/><linearGradient id="Gold_Effect-33" x1="281.74" y1="60.61" x2="568.45" y2="60.61" xlink:href="#Gold_Effect"/><linearGradient id="Gold_Effect-34" x1="284.11" y1="66.45" x2="564.32" y2="66.45" xlink:href="#Gold_Effect"/><linearGradient id="Gold_Effect-35" x1="286.47" y1="72.28" x2="560.2" y2="72.28" xlink:href="#Gold_Effect"/><linearGradient id="Gold_Effect-36" x1="289.74" y1="68.62" x2="568.18" y2="68.62" xlink:href="#Gold_Effect"/><linearGradient id="Gold_Effect-37" x1="293" y1="64.96" x2="576.16" y2="64.96" xlink:href="#Gold_Effect"/><linearGradient id="Gold_Effect-38" x1="296.27" y1="61.3" x2="584.13" y2="61.3" xlink:href="#Gold_Effect"/><linearGradient id="Gold_Effect-39" x1="299.54" y1="57.63" x2="592.11" y2="57.63" xlink:href="#Gold_Effect"/><linearGradient id="Gold_Effect-40" x1="302.81" y1="53.97" x2="600.09" y2="53.97" xlink:href="#Gold_Effect"/><linearGradient id="Gold_Effect-41" x1="306.07" y1="50.31" x2="608.07" y2="50.31" xlink:href="#Gold_Effect"/><linearGradient id="Gold_Effect-42" x1="309.34" y1="46.64" x2="616.05" y2="46.64" xlink:href="#Gold_Effect"/><linearGradient id="Gold_Effect-43" x1="312.61" y1="42.98" x2="624.03" y2="42.98" xlink:href="#Gold_Effect"/><linearGradient id="Gold_Effect-44" x1="315.88" y1="39.32" x2="632.01" y2="39.32" xlink:href="#Gold_Effect"/><linearGradient id="Gold_Effect-45" x1="319.14" y1="35.65" x2="639.99" y2="35.65" xlink:href="#Gold_Effect"/><linearGradient id="Gold_Effect-46" x1="322.41" y1="31.99" x2="647.96" y2="31.99" xlink:href="#Gold_Effect"/><linearGradient id="Gold_Effect-47" x1="325.68" y1="28.33" x2="655.94" y2="28.33" xlink:href="#Gold_Effect"/><linearGradient id="Gold_Effect-48" x1="328.94" y1="24.67" x2="663.92" y2="24.67" xlink:href="#Gold_Effect"/><linearGradient id="Gold_Effect-49" x1="332.21" y1="21" x2="671.9" y2="21" xlink:href="#Gold_Effect"/><linearGradient id="Gold_Effect-50" x1="335.48" y1="17.34" x2="679.88" y2="17.34" xlink:href="#Gold_Effect"/><linearGradient id="Gold_Effect-51" x1="338.75" y1="13.68" x2="687.86" y2="13.68" xlink:href="#Gold_Effect"/><linearGradient id="Gold_Effect-52" x1="342.01" y1="10.01" x2="695.84" y2="10.01" xlink:href="#Gold_Effect"/><linearGradient id="Gold_Effect-53" x1="345.28" y1="6.35" x2="703.81" y2="6.35" xlink:href="#Gold_Effect"/><linearGradient id="Gold_Effect-54" x1="348.55" y1="2.69" x2="711.79" y2="2.69" xlink:href="#Gold_Effect"/><linearGradient id="Gold_Effect-55" x1="351.82" y1="-.97" x2="719.77" y2="-.97" xlink:href="#Gold_Effect"/><linearGradient id="Gold_Effect-56" x1="355.08" y1="-4.64" x2="727.75" y2="-4.64" xlink:href="#Gold_Effect"/><linearGradient id="Gold_Effect-57" x1="358.35" y1="-8.3" x2="735.73" y2="-8.3" xlink:href="#Gold_Effect"/><linearGradient id="Gold_Effect-58" x1="361.62" y1="-11.96" x2="743.71" y2="-11.96" xlink:href="#Gold_Effect"/><linearGradient id="Gold_Effect-59" x1="364.88" y1="-15.63" x2="751.69" y2="-15.63" xlink:href="#Gold_Effect"/><linearGradient id="Gold_Effect-60" x1="368.15" y1="-19.29" x2="759.66" y2="-19.29" xlink:href="#Gold_Effect"/><linearGradient id="Gold_Effect-61" x1="371.42" y1="-22.95" x2="767.64" y2="-22.95" xlink:href="#Gold_Effect"/><linearGradient id="linear-gradient-67" x1="509.31" y1="542.55" x2="571.48" y2="480.38" gradientUnits="userSpaceOnUse"><stop offset="0" stop-color="#111525"/><stop offset=".12" stop-color="#1e1e28"/><stop offset=".34" stop-color="#423830"/><stop offset=".64" stop-color="#7c623e"/><stop offset="1" stop-color="#ca9a50"/></linearGradient><linearGradient id="linear-gradient-68" x1="1705.69" y1="1125.54" x2="1823.31" y2="1007.92" gradientTransform="translate(2311.99 -921.47) rotate(76.84)" xlink:href="#linear-gradient-67"/><linearGradient id="linear-gradient-69" x1="1651.62" y1="177.32" x2="1698.66" y2="130.28" xlink:href="#linear-gradient-67"/><linearGradient id="linear-gradient-70" x1="163.76" y1="449.76" x2="249.45" y2="364.06" xlink:href="#linear-gradient-67"/><linearGradient id="linear-gradient-71" x1="-17.96" y1="1127.02" x2="44.21" y2="1064.85" xlink:href="#linear-gradient-67"/><linearGradient id="linear-gradient-72" x1="-50.27" y1="197.11" x2="132.03" y2="14.8" gradientTransform="translate(-72.26 115.8) rotate(-73.87)" xlink:href="#linear-gradient-67"/><linearGradient id="linear-gradient-73" x1="1799.59" y1="412.96" x2="1861.76" y2="350.79" xlink:href="#linear-gradient-67"/></defs><g class="cls-28"><path class="cls-91" d="m-12.69,927.6c766.66,269.52,1078-704.99,1960.89-298.32"/><path class="cls-1" d="m1947.74,625.55c-443.51-176.67-737.25-68.57-1035.08,100.29-291.16,165.12-556.71,310.24-927.37,195.04"/><path class="cls-4" d="m1947.28,621.82c-440.04-147.47-727.05-79.38-1035.47,96.86-302.2,172.75-565.76,292.8-928.56,195.48"/><path class="cls-19" d="m1946.83,618.1c-436.57-118.26-716.84-90.19-1035.85,93.44-313.23,180.38-574.8,275.36-929.74,195.92"/><path class="cls-67" d="m1946.37,614.37c-433.1-89.05-706.64-101.01-1036.23,90.01-324.27,188.02-583.85,257.92-930.92,196.35"/><path class="cls-21" d="m1945.91,610.65c-429.64-59.85-696.43-111.82-1036.62,86.58-335.3,195.65-592.9,240.48-932.1,196.79"/><path class="cls-60" d="m1945.45,606.92c-426.17-30.64-686.23-122.63-1037,83.15-346.33,203.28-601.94,223.04-933.28,197.23"/><path class="cls-113" d="m1944.99,603.2c-422.7-1.43-676.02-133.44-1037.39,79.72-357.37,210.91-610.99,205.6-934.46,197.66"/><path class="cls-9" d="m1944.53,599.47c-419.23,27.78-665.81-144.25-1037.77,76.29-368.4,218.55-620.04,188.16-935.64,198.1"/><path class="cls-118" d="m1944.07,595.74c-415.76,56.98-655.61-155.06-1038.15,72.86-379.44,226.18-629.08,170.72-936.83,198.54"/><path class="cls-112" d="m1943.62,592.02c-412.3,86.19-645.4-165.87-1038.54,69.44-390.47,233.81-638.13,153.28-938.01,198.97"/><path class="cls-66" d="m1943.16,588.29c-408.83,115.4-635.2-176.69-1038.92,66.01-401.5,241.44-647.18,135.84-939.19,199.41"/><path class="cls-38" d="m1942.7,584.57c-405.36,144.6-624.99-187.5-1039.31,62.58-412.54,249.08-656.22,118.4-940.37,199.85"/><path class="cls-106" d="m1942.24,580.84c-401.89,173.81-614.79-198.31-1039.69,59.15-423.57,256.71-665.27,100.96-941.55,200.29"/><path class="cls-120" d="m1941.78,577.12c-398.43,203.02-604.58-209.12-1040.08,55.72-434.61,264.34-674.32,83.52-942.73,200.72"/><path class="cls-42" d="m1941.32,573.39c-394.96,232.23-594.38-219.93-1040.46,52.29-445.64,271.98-683.36,66.08-943.91,201.16"/><path class="cls-48" d="m1940.87,569.67c-391.49,261.43-584.17-230.74-1040.84,48.86-456.67,279.61-692.41,48.64-945.09,201.6"/><path class="cls-23" d="m1950.19,571.01c-392.02,261.39-589.83-227.81-1047.73,52.06-456.4,279.02-689.96,44.06-947.21,200.6"/><path class="cls-16" d="m1959.51,572.35c-392.55,261.36-595.49-224.87-1054.62,55.27-456.13,278.44-687.52,39.48-949.33,199.61"/><path class="cls-83" d="m1968.84,573.69c-393.08,261.32-601.15-221.94-1061.51,58.47-455.85,277.86-685.07,34.9-951.45,198.62"/><path class="cls-64" d="m1978.16,575.03c-393.62,261.28-606.81-219.01-1068.39,61.67-455.58,277.28-682.63,30.32-953.57,197.62"/><path class="cls-14" d="m1987.49,576.37c-394.15,261.24-612.48-216.07-1075.28,64.87-455.31,276.69-680.18,25.74-955.68,196.63"/><path class="cls-105" d="m1996.81,577.71c-394.68,261.2-618.14-213.14-1082.17,68.07-455.04,276.11-677.73,21.16-957.8,195.64"/><path class="cls-85" d="m2006.14,579.05c-395.21,261.16-623.8-210.2-1089.06,71.27-454.76,275.53-675.29,16.58-959.92,194.64"/><path class="cls-92" d="m2015.46,580.4c-395.74,261.13-629.46-207.27-1095.94,74.47-454.49,274.94-672.84,11.99-962.04,193.65"/><path class="cls-17" d="m2024.78,581.74c-396.27,261.09-635.12-204.33-1102.83,77.67-454.22,274.36-670.4,7.41-964.16,192.66"/><path class="cls-103" d="m2034.11,583.08c-396.81,261.05-640.78-201.4-1109.72,80.87-453.94,273.78-667.95,2.83-966.27,191.66"/><path class="cls-6" d="m2043.43,584.42c-397.34,261.01-646.44-198.47-1116.61,84.07-453.67,273.19-665.51-1.75-968.39,190.67"/><path class="cls-41" d="m2052.76,585.76c-397.87,260.97-652.1-195.53-1123.49,87.27-453.4,272.61-663.06-6.33-970.51,189.67"/><path class="cls-55" d="m2062.08,587.1c-398.4,260.94-657.76-192.6-1130.38,90.47-453.13,272.03-660.61-10.91-972.63,188.68"/><path class="cls-89" d="m2071.41,588.44c-398.93,260.9-663.43-189.66-1137.27,93.67-452.85,271.44-658.17-15.49-974.75,187.69"/><path class="cls-80" d="m2080.73,589.78c-399.46,260.86-669.09-186.73-1144.15,96.87-452.58,270.86-655.72-20.07-976.86,186.69"/><path class="cls-88" d="m2090.05,591.13c-399.99,260.82-674.75-183.8-1151.04,100.07-452.31,270.28-653.28-24.65-978.98,185.7"/><path class="cls-111" d="m2099.38,592.47c-400.53,260.78-680.41-180.86-1157.93,103.27-452.03,269.69-650.83-29.23-981.1,184.71"/><path class="cls-95" d="m2108.7,593.81c-401.06,260.74-686.07-177.93-1164.82,106.47-451.76,269.11-648.39-33.82-983.22,183.71"/><path class="cls-81" d="m2118.03,595.15c-401.59,260.71-691.73-174.99-1171.7,109.67-451.49,268.53-645.94-38.4-985.34,182.72"/><path class="cls-10" d="m2127.35,596.49c-402.12,260.67-697.39-172.06-1178.59,112.87-451.21,267.95-643.49-42.98-987.45,181.73"/><path class="cls-68" d="m2136.68,597.83c-402.65,260.63-703.05-169.12-1185.48,116.07-450.94,267.36-641.05-47.56-989.57,180.73"/><path class="cls-61" d="m2146,599.17c-403.18,260.59-708.72-166.19-1192.37,119.27-450.67,266.78-638.6-52.14-991.69,179.74"/><path class="cls-117" d="m2155.32,600.51c-403.71,260.55-714.38-163.26-1199.25,122.47-450.4,266.2-636.16-56.72-993.81,178.75"/><path class="cls-107" d="m2164.65,601.86c-404.25,260.51-720.04-160.32-1206.14,125.67-450.12,265.61-633.71-61.3-995.93,177.75"/><path class="cls-110" d="m2173.97,603.2c-404.78,260.48-725.7-157.39-1213.03,128.87-449.85,265.03-631.27-65.88-998.04,176.76"/><path class="cls-121" d="m2183.3,604.54c-405.31,260.44-731.36-154.45-1219.92,132.07-449.58,264.45-628.82-70.46-1000.16,175.76"/><path class="cls-108" d="m2192.62,605.88c-405.84,260.4-737.02-151.52-1226.8,135.27-449.3,263.86-626.37-75.04-1002.28,174.77"/><path class="cls-124" d="m2201.94,607.22c-406.37,260.36-742.68-148.58-1233.69,138.47-449.03,263.28-623.93-79.63-1004.4,173.78"/><path class="cls-100" d="m2211.27,608.56c-406.9,260.32-748.34-145.65-1240.58,141.67-448.76,262.7-621.48-84.21-1006.52,172.78"/><path class="cls-115" d="m2220.59,609.9c-407.43,260.29-754-142.72-1247.47,144.87-448.49,262.11-619.04-88.79-1008.63,171.79"/><path class="cls-49" d="m2229.92,611.24c-407.97,260.25-759.67-139.78-1254.35,148.07-448.21,261.53-616.59-93.37-1010.75,170.8"/><path class="cls-101" d="m2239.24,612.59c-408.5,260.21-765.33-136.85-1261.24,151.27-447.94,260.95-614.15-97.95-1012.87,169.8"/><path class="cls-27" d="m2248.57,613.93c-409.03,260.17-770.99-133.91-1268.13,154.47-447.67,260.36-611.7-102.53-1014.99,168.81"/><path class="cls-76" d="m2257.89,615.27c-409.56,260.13-776.65-130.98-1275.02,157.67-447.39,259.78-609.25-107.11-1017.11,167.82"/><path class="cls-56" d="m2267.21,616.61c-410.09,260.09-782.31-128.04-1281.9,160.87-447.12,259.2-606.81-111.69-1019.22,166.82"/><path class="cls-12" d="m2276.54,617.95c-410.62,260.06-787.97-125.11-1288.79,164.07-446.85,258.62-604.36-116.27-1021.34,165.83"/><path class="cls-77" d="m2285.86,619.29c-411.15,260.02-793.63-122.18-1295.68,167.27-446.57,258.03-601.92-120.85-1023.46,164.84"/><path class="cls-52" d="m2295.19,620.63c-411.69,259.98-799.29-119.24-1302.57,170.47-446.3,257.45-599.47-125.44-1025.58,163.84"/><path class="cls-127" d="m2304.51,621.98c-412.22,259.94-804.95-116.31-1309.45,173.67-446.03,256.87-597.03-130.02-1027.7,162.85"/><path class="cls-86" d="m2313.84,623.32c-412.75,259.9-810.62-113.37-1316.34,176.87-445.76,256.28-594.58-134.6-1029.81,161.85"/><path class="cls-13" d="m2323.16,624.66c-413.28,259.86-816.28-110.44-1323.23,180.07-445.48,255.7-592.13-139.18-1031.93,160.86"/><path class="cls-70" d="m2332.48,626c-413.81,259.83-821.94-107.5-1330.11,183.27-445.21,255.12-589.69-143.76-1034.05,159.87"/><path class="cls-74" d="m2341.81,627.34c-414.34,259.79-827.6-104.57-1337,186.47-444.94,254.53-587.24-148.34-1036.17,158.87"/><path class="cls-20" d="m2351.13,628.68c-414.87,259.75-833.26-101.64-1343.89,189.67-444.66,253.95-584.8-152.92-1038.29,157.88"/><path class="cls-96" d="m2360.46,630.02c-415.41,259.71-838.92-98.7-1350.78,192.87-444.39,253.37-582.35-157.5-1040.4,156.89"/><path class="cls-39" d="m2369.78,631.36c-415.94,259.67-844.58-95.77-1357.66,196.07-444.12,252.78-579.91-162.08-1042.52,155.89"/><path class="cls-7" d="m2379.11,632.71c-416.47,259.64-850.24-92.83-1364.55,199.27-443.85,252.2-577.46-166.66-1044.64,154.9"/><path class="cls-116" d="m2388.43,634.05c-417,259.6-855.91-89.9-1371.44,202.47-443.57,251.62-575.01-171.24-1046.76,153.91"/><path class="cls-75" d="m2397.75,635.39c-417.53,259.56-861.57-86.96-1378.33,205.67-443.3,251.03-572.57-175.83-1048.88,152.91"/></g><g class="cls-28"><circle class="cls-30" cx="453.25" cy="-126.12" r="246.65"/><circle class="cls-114" cx="452.37" cy="-120.28" r="243.4"/><circle class="cls-29" cx="451.49" cy="-114.44" r="240.16"/><circle class="cls-37" cx="450.61" cy="-108.61" r="236.92"/><circle class="cls-18" cx="449.73" cy="-102.77" r="233.67"/><circle class="cls-51" cx="448.85" cy="-96.94" r="230.43"/><circle class="cls-31" cx="447.97" cy="-91.1" r="227.19"/><circle class="cls-99" cx="447.09" cy="-85.27" r="223.94"/><circle class="cls-109" cx="446.21" cy="-79.43" r="220.7"/><circle class="cls-5" cx="445.33" cy="-73.6" r="217.46"/><circle class="cls-94" cx="444.45" cy="-67.76" r="214.21"/><circle class="cls-93" cx="443.57" cy="-61.93" r="210.97"/><circle class="cls-126" cx="442.69" cy="-56.09" r="207.72"/><circle class="cls-58" cx="441.81" cy="-50.26" r="204.48"/><circle class="cls-123" cx="440.93" cy="-44.42" r="201.24"/><circle class="cls-84" cx="440.05" cy="-38.59" r="197.99"/><circle class="cls-33" cx="439.17" cy="-32.75" r="194.75"/><circle class="cls-62" cx="438.29" cy="-26.92" r="191.51"/><circle class="cls-102" cx="437.41" cy="-21.08" r="188.26"/><circle class="cls-44" cx="436.53" cy="-15.25" r="185.02"/><circle class="cls-24" cx="435.65" cy="-9.41" r="181.78"/><circle class="cls-122" cx="434.77" cy="-3.57" r="178.53"/><circle class="cls-69" cx="433.89" cy="2.26" r="175.29"/><circle class="cls-8" cx="433.01" cy="8.1" r="172.04"/><circle class="cls-87" cx="432.13" cy="13.93" r="168.8"/><circle class="cls-3" cx="431.25" cy="19.77" r="165.56"/><circle class="cls-46" cx="430.37" cy="25.6" r="162.31"/><circle class="cls-11" cx="429.49" cy="31.44" r="159.07"/><circle class="cls-34" cx="428.61" cy="37.27" r="155.83"/><circle class="cls-98" cx="427.73" cy="43.11" r="152.58"/><circle class="cls-2" cx="426.85" cy="48.94" r="149.34"/><circle class="cls-50" cx="425.97" cy="54.78" r="146.1"/><circle class="cls-32" cx="425.09" cy="60.61" r="142.85"/><circle class="cls-104" cx="424.21" cy="66.45" r="139.61"/><circle class="cls-45" cx="423.33" cy="72.28" r="136.36"/><circle class="cls-119" cx="428.96" cy="68.62" r="138.72"/><circle class="cls-125" cx="434.58" cy="64.96" r="141.08"/><circle class="cls-25" cx="440.2" cy="61.3" r="143.43"/><circle class="cls-43" cx="445.83" cy="57.63" r="145.79"/><circle class="cls-63" cx="451.45" cy="53.97" r="148.14"/><circle class="cls-97" cx="457.07" cy="50.31" r="150.5"/><circle class="cls-36" cx="462.7" cy="46.64" r="152.85"/><circle class="cls-72" cx="468.32" cy="42.98" r="155.21"/><circle class="cls-54" cx="473.94" cy="39.32" r="157.57"/><circle class="cls-40" cx="479.56" cy="35.65" r="159.92"/><circle class="cls-22" cx="485.19" cy="31.99" r="162.28"/><circle class="cls-73" cx="490.81" cy="28.33" r="164.63"/><circle class="cls-26" cx="496.43" cy="24.67" r="166.99"/><circle class="cls-53" cx="502.06" cy="21" r="169.34"/><circle class="cls-82" cx="507.68" cy="17.34" r="171.7"/><circle class="cls-128" cx="513.3" cy="13.68" r="174.06"/><circle class="cls-15" cx="518.92" cy="10.01" r="176.41"/><circle class="cls-90" cx="524.55" cy="6.35" r="178.77"/><circle class="cls-65" cx="530.17" cy="2.69" r="181.12"/><circle class="cls-57" cx="535.79" cy="-.97" r="183.48"/><circle class="cls-47" cx="541.42" cy="-4.64" r="185.83"/><circle class="cls-59" cx="547.04" cy="-8.3" r="188.19"/><circle class="cls-78" cx="552.66" cy="-11.96" r="190.55"/><circle class="cls-79" cx="558.28" cy="-15.63" r="192.9"/><circle class="cls-71" cx="563.91" cy="-19.29" r="195.26"/><circle class="cls-35" cx="569.53" cy="-22.95" r="197.61"/></g><circle class="cls-134" cx="540.39" cy="511.47" r="43.96"/><circle class="cls-130" cx="1675.14" cy="1039.6" r="83.17"/><circle class="cls-129" cx="1675.14" cy="153.8" r="33.27"/><circle class="cls-135" cx="206.6" cy="406.91" r="60.59"/><circle class="cls-131" cx="13.12" cy="1095.93" r="43.96"/><circle class="cls-132" cx="40.88" cy="105.96" r="128.91"/><circle class="cls-133" cx="1830.68" cy="381.87" r="43.96"/></svg>