<?xml version="1.0" encoding="UTF-8"?><svg id="Layer_1" xmlns="http://www.w3.org/2000/svg" xmlns:xlink="http://www.w3.org/1999/xlink" viewBox="0 0 360 640"><defs><style>.cls-1{stroke:url(#linear-gradient-2);}.cls-1,.cls-2,.cls-3,.cls-4,.cls-5,.cls-6,.cls-7,.cls-8,.cls-9,.cls-10,.cls-11,.cls-12,.cls-13,.cls-14,.cls-15,.cls-16,.cls-17,.cls-18,.cls-19,.cls-20,.cls-21,.cls-22,.cls-23,.cls-24,.cls-25,.cls-26,.cls-27,.cls-28,.cls-29,.cls-30,.cls-31,.cls-32,.cls-33,.cls-34,.cls-35,.cls-36,.cls-37,.cls-38,.cls-39,.cls-40,.cls-41,.cls-42,.cls-43,.cls-44,.cls-45,.cls-46,.cls-47,.cls-48,.cls-49,.cls-50,.cls-51,.cls-52,.cls-53,.cls-54,.cls-55,.cls-56,.cls-57{fill:none;}.cls-1,.cls-2,.cls-3,.cls-4,.cls-5,.cls-6,.cls-7,.cls-8,.cls-9,.cls-10,.cls-11,.cls-12,.cls-13,.cls-14,.cls-15,.cls-17,.cls-18,.cls-19,.cls-20,.cls-21,.cls-22,.cls-23,.cls-24,.cls-25,.cls-26,.cls-27,.cls-28,.cls-29,.cls-30,.cls-31,.cls-32,.cls-33,.cls-34,.cls-35,.cls-36,.cls-37,.cls-38,.cls-39,.cls-40,.cls-41,.cls-42,.cls-43,.cls-44,.cls-45,.cls-46,.cls-47,.cls-48,.cls-49,.cls-50,.cls-51,.cls-52,.cls-53,.cls-54,.cls-55,.cls-56,.cls-57{stroke-miterlimit:10;}.cls-2{stroke:url(#Gold_Effect-26);}.cls-3{stroke:url(#linear-gradient-3);}.cls-4{stroke:url(#Gold_Effect-10);}.cls-5{stroke:url(#linear-gradient-28);}.cls-58{fill:url(#linear-gradient-31);}.cls-58,.cls-59{opacity:.8;}.cls-6{stroke:url(#Gold_Effect-24);}.cls-7{stroke:url(#linear-gradient-9);}.cls-8{stroke:url(#linear-gradient-22);}.cls-9{stroke:url(#linear-gradient-19);}.cls-10{stroke:url(#linear-gradient-26);}.cls-11{stroke:url(#Gold_Effect-5);}.cls-12{stroke:url(#linear-gradient-4);}.cls-13{stroke:url(#linear-gradient-6);}.cls-14{stroke:url(#linear-gradient-18);}.cls-15{stroke:url(#Gold_Effect-21);}.cls-16{opacity:.7;}.cls-17{stroke:url(#Gold_Effect-3);}.cls-18{stroke:url(#Gold_Effect);}.cls-19{stroke:url(#Gold_Effect-7);}.cls-20{stroke:url(#Gold_Effect-17);}.cls-21{stroke:url(#Gold_Effect-4);}.cls-22{stroke:url(#linear-gradient-13);}.cls-23{stroke:url(#linear-gradient-29);}.cls-24{stroke:url(#linear-gradient-16);}.cls-25{stroke:url(#Gold_Effect-20);}.cls-26{stroke:url(#Gold_Effect-27);}.cls-27{stroke:url(#linear-gradient-17);}.cls-28{stroke:url(#Gold_Effect-6);}.cls-29{stroke:url(#Gold_Effect-14);}.cls-30{stroke:url(#linear-gradient-7);}.cls-31{stroke:url(#Gold_Effect-18);}.cls-32{stroke:url(#linear-gradient-21);}.cls-33{stroke:url(#linear-gradient-12);}.cls-34{stroke:url(#linear-gradient-5);}.cls-35{stroke:url(#Gold_Effect-23);}.cls-36{stroke:url(#linear-gradient-20);}.cls-37{stroke:url(#Gold_Effect-16);}.cls-38{stroke:url(#linear-gradient-24);}.cls-39{stroke:url(#Gold_Effect-25);}.cls-40{stroke:url(#linear-gradient);}.cls-41{stroke:url(#linear-gradient-25);}.cls-42{stroke:url(#Gold_Effect-12);}.cls-43{stroke:url(#Gold_Effect-11);}.cls-44{stroke:url(#Gold_Effect-8);}.cls-45{stroke:url(#Gold_Effect-19);}.cls-46{stroke:url(#linear-gradient-27);}.cls-47{stroke:url(#linear-gradient-23);}.cls-48{stroke:url(#linear-gradient-14);}.cls-49{stroke:url(#Gold_Effect-9);}.cls-50{stroke:url(#linear-gradient-11);}.cls-51{stroke:url(#linear-gradient-8);}.cls-52{stroke:url(#Gold_Effect-2);}.cls-53{stroke:url(#linear-gradient-10);}.cls-59{fill:url(#linear-gradient-32);}.cls-60{fill:url(#linear-gradient-30);opacity:.75;}.cls-54{stroke:url(#linear-gradient-15);}.cls-55{stroke:url(#Gold_Effect-22);}.cls-56{stroke:url(#Gold_Effect-15);}.cls-57{stroke:url(#Gold_Effect-13);}</style><linearGradient id="linear-gradient" x1="-56.38" y1="811.65" x2="491.54" y2="811.65" gradientTransform="translate(498.61 1275.19) rotate(172.99) scale(1.58 1.14)" gradientUnits="userSpaceOnUse"><stop offset=".12" stop-color="#f6e27b"/><stop offset=".29" stop-color="#ca9a50"/><stop offset=".44" stop-color="#f6e27b"/><stop offset=".5" stop-color="#f6f2c1"/><stop offset=".57" stop-color="#f6e27b"/><stop offset=".74" stop-color="#ca9a50"/><stop offset=".85" stop-color="#f6e27b"/><stop offset="1" stop-color="#f6f2c1"/></linearGradient><linearGradient id="linear-gradient-2" x1="-56.33" y1="815.92" x2="492.24" y2="815.92" xlink:href="#linear-gradient"/><linearGradient id="linear-gradient-3" x1="-56.25" y1="821.14" x2="492.93" y2="821.14" xlink:href="#linear-gradient"/><linearGradient id="linear-gradient-4" x1="-56.15" y1="827.47" x2="493.61" y2="827.47" xlink:href="#linear-gradient"/><linearGradient id="linear-gradient-5" x1="-56.07" y1="834.43" x2="494.27" y2="834.43" xlink:href="#linear-gradient"/><linearGradient id="linear-gradient-6" x1="-56.18" y1="841.45" x2="495.09" y2="841.45" xlink:href="#linear-gradient"/><linearGradient id="linear-gradient-7" x1="-56.27" y1="847.48" x2="495.93" y2="847.48" xlink:href="#linear-gradient"/><linearGradient id="linear-gradient-8" x1="-56.34" y1="847.79" x2="496.77" y2="847.79" xlink:href="#linear-gradient"/><linearGradient id="linear-gradient-9" x1="-62.2" y1="844.58" x2="496.85" y2="844.58" xlink:href="#linear-gradient"/><linearGradient id="linear-gradient-10" x1="-68.05" y1="841.37" x2="496.92" y2="841.37" xlink:href="#linear-gradient"/><linearGradient id="linear-gradient-11" x1="-73.91" y1="838.16" x2="497" y2="838.16" xlink:href="#linear-gradient"/><linearGradient id="linear-gradient-12" x1="-79.76" y1="834.95" x2="497.08" y2="834.95" xlink:href="#linear-gradient"/><linearGradient id="linear-gradient-13" x1="-85.62" y1="831.74" x2="497.16" y2="831.74" xlink:href="#linear-gradient"/><linearGradient id="linear-gradient-14" x1="-91.47" y1="828.53" x2="497.23" y2="828.53" xlink:href="#linear-gradient"/><linearGradient id="linear-gradient-15" x1="-97.33" y1="825.32" x2="497.31" y2="825.32" xlink:href="#linear-gradient"/><linearGradient id="linear-gradient-16" x1="-103.18" y1="822.11" x2="497.39" y2="822.11" xlink:href="#linear-gradient"/><linearGradient id="linear-gradient-17" x1="-109.04" y1="818.91" x2="497.46" y2="818.91" xlink:href="#linear-gradient"/><linearGradient id="linear-gradient-18" x1="-114.89" y1="815.7" x2="497.54" y2="815.7" xlink:href="#linear-gradient"/><linearGradient id="linear-gradient-19" x1="-120.75" y1="812.5" x2="497.62" y2="812.5" xlink:href="#linear-gradient"/><linearGradient id="linear-gradient-20" x1="-126.6" y1="809.3" x2="497.69" y2="809.3" xlink:href="#linear-gradient"/><linearGradient id="linear-gradient-21" x1="-132.46" y1="806.09" x2="497.77" y2="806.09" xlink:href="#linear-gradient"/><linearGradient id="linear-gradient-22" x1="-138.31" y1="802.48" x2="497.84" y2="802.48" xlink:href="#linear-gradient"/><linearGradient id="linear-gradient-23" x1="-144.17" y1="798.66" x2="497.92" y2="798.66" xlink:href="#linear-gradient"/><linearGradient id="linear-gradient-24" x1="-150.02" y1="794.82" x2="498" y2="794.82" xlink:href="#linear-gradient"/><linearGradient id="linear-gradient-25" x1="-155.88" y1="790.98" x2="498.07" y2="790.98" xlink:href="#linear-gradient"/><linearGradient id="linear-gradient-26" x1="-161.73" y1="787.13" x2="498.15" y2="787.13" xlink:href="#linear-gradient"/><linearGradient id="linear-gradient-27" x1="-167.58" y1="783.28" x2="498.23" y2="783.28" xlink:href="#linear-gradient"/><linearGradient id="linear-gradient-28" x1="-173.44" y1="779.42" x2="498.3" y2="779.42" xlink:href="#linear-gradient"/><linearGradient id="linear-gradient-29" x1="-179.29" y1="775.56" x2="498.38" y2="775.56" xlink:href="#linear-gradient"/><linearGradient id="Gold_Effect" x1="-70.96" y1="-59.93" x2="145.37" y2="-59.93" gradientUnits="userSpaceOnUse"><stop offset="0" stop-color="#604442"/><stop offset=".03" stop-color="#846146"/><stop offset=".07" stop-color="#a27a4a"/><stop offset=".1" stop-color="#b88b4d"/><stop offset=".14" stop-color="#c5964f"/><stop offset=".17" stop-color="#ca9a50"/><stop offset=".44" stop-color="#f6e27b"/><stop offset=".5" stop-color="#f6f2c1"/><stop offset=".57" stop-color="#f6e27b"/><stop offset=".85" stop-color="#ca9a50"/><stop offset="1" stop-color="#604442"/></linearGradient><linearGradient id="Gold_Effect-2" x1="-68.62" y1="-54.15" x2="141.29" y2="-54.15" xlink:href="#Gold_Effect"/><linearGradient id="Gold_Effect-3" x1="-66.28" y1="-48.38" x2="137.21" y2="-48.38" xlink:href="#Gold_Effect"/><linearGradient id="Gold_Effect-4" x1="-63.94" y1="-42.61" x2="133.13" y2="-42.61" xlink:href="#Gold_Effect"/><linearGradient id="Gold_Effect-5" x1="-61.6" y1="-36.83" x2="129.05" y2="-36.83" xlink:href="#Gold_Effect"/><linearGradient id="Gold_Effect-6" x1="-59.26" y1="-31.06" x2="124.97" y2="-31.06" xlink:href="#Gold_Effect"/><linearGradient id="Gold_Effect-7" x1="-56.93" y1="-25.29" x2="120.89" y2="-25.29" xlink:href="#Gold_Effect"/><linearGradient id="Gold_Effect-8" x1="-54.59" y1="-19.51" x2="116.81" y2="-19.51" xlink:href="#Gold_Effect"/><linearGradient id="Gold_Effect-9" x1="-52.25" y1="-13.74" x2="112.73" y2="-13.74" xlink:href="#Gold_Effect"/><linearGradient id="Gold_Effect-10" x1="-49.91" y1="-7.96" x2="108.65" y2="-7.96" xlink:href="#Gold_Effect"/><linearGradient id="Gold_Effect-11" x1="-47.57" y1="-2.19" x2="104.57" y2="-2.19" xlink:href="#Gold_Effect"/><linearGradient id="Gold_Effect-12" x1="-45.23" y1="3.58" x2="100.49" y2="3.58" xlink:href="#Gold_Effect"/><linearGradient id="Gold_Effect-13" x1="-42.89" y1="9.36" x2="96.41" y2="9.36" xlink:href="#Gold_Effect"/><linearGradient id="Gold_Effect-14" x1="-40.56" y1="15.13" x2="92.33" y2="15.13" xlink:href="#Gold_Effect"/><linearGradient id="Gold_Effect-15" x1="-38.22" y1="20.9" x2="88.25" y2="20.9" xlink:href="#Gold_Effect"/><linearGradient id="Gold_Effect-16" x1="-35.88" y1="26.68" x2="84.17" y2="26.68" xlink:href="#Gold_Effect"/><linearGradient id="Gold_Effect-17" x1="-32.51" y1="22.9" x2="92.4" y2="22.9" xlink:href="#Gold_Effect"/><linearGradient id="Gold_Effect-18" x1="-29.14" y1="19.12" x2="100.63" y2="19.12" xlink:href="#Gold_Effect"/><linearGradient id="Gold_Effect-19" x1="-25.77" y1="15.34" x2="108.87" y2="15.34" xlink:href="#Gold_Effect"/><linearGradient id="Gold_Effect-20" x1="-22.39" y1="11.56" x2="117.1" y2="11.56" xlink:href="#Gold_Effect"/><linearGradient id="Gold_Effect-21" x1="-19.02" y1="7.78" x2="125.33" y2="7.78" xlink:href="#Gold_Effect"/><linearGradient id="Gold_Effect-22" x1="-15.65" y1="4" x2="133.56" y2="4" xlink:href="#Gold_Effect"/><linearGradient id="Gold_Effect-23" x1="-12.28" y1=".22" x2="141.79" y2=".22" xlink:href="#Gold_Effect"/><linearGradient id="Gold_Effect-24" x1="-8.91" y1="-3.56" x2="150.03" y2="-3.56" xlink:href="#Gold_Effect"/><linearGradient id="Gold_Effect-25" x1="-5.54" y1="-7.34" x2="158.26" y2="-7.34" xlink:href="#Gold_Effect"/><linearGradient id="Gold_Effect-26" x1="-2.17" y1="-11.12" x2="166.49" y2="-11.12" xlink:href="#Gold_Effect"/><linearGradient id="Gold_Effect-27" x1="1.2" y1="-14.9" x2="174.72" y2="-14.9" xlink:href="#Gold_Effect"/><linearGradient id="linear-gradient-30" x1="46.35" y1="265.04" x2="73.48" y2="237.9" gradientUnits="userSpaceOnUse"><stop offset="0" stop-color="#111525"/><stop offset=".12" stop-color="#1e1e28"/><stop offset=".34" stop-color="#423830"/><stop offset=".64" stop-color="#7c623e"/><stop offset="1" stop-color="#ca9a50"/></linearGradient><linearGradient id="linear-gradient-31" x1="555.83" y1="1332.61" x2="607.17" y2="1281.27" gradientTransform="translate(1495.41 -331.86) rotate(76.84)" xlink:href="#linear-gradient-30"/><linearGradient id="linear-gradient-32" x1="344.97" y1="155.62" x2="365.51" y2="135.08" xlink:href="#linear-gradient-30"/></defs><g class="cls-16"><path class="cls-40" d="m-381.51,483.12C-46.86,600.77,89.05,175.39,474.43,352.9"/><path class="cls-1" d="m473.98,349.18c-191.65-60.73-316.09-36-452.04,41.86-133.29,76.36-248.08,125.63-405.47,85.38"/><path class="cls-3" d="m473.52,345.46c-188.19-31.59-305.91-46.79-452.42,38.44-144.3,83.97-257.11,108.23-406.64,85.82"/><path class="cls-12" d="m473.06,341.75c-184.73-2.45-295.73-57.57-452.81,35.01-155.31,91.59-266.14,90.83-407.82,86.25"/><path class="cls-34" d="m472.6,338.03c-181.27,26.69-285.54-68.36-453.19,31.59-166.31,99.2-275.16,73.43-409,86.69"/><path class="cls-13" d="m472.15,334.31c-177.81,55.84-275.36-79.15-453.57,28.17-177.32,106.82-284.19,56.03-410.18,87.13"/><path class="cls-30" d="m471.69,330.6c-174.35,84.98-265.18-89.93-453.95,24.75-188.33,114.44-293.22,38.63-411.36,87.56"/><path class="cls-51" d="m471.23,326.88c-170.89,114.12-254.99-100.72-454.34,21.33-199.34,122.05-302.24,21.23-412.54,88"/><path class="cls-7" d="m480.73,328.24c-171.43,114.08-260.76-97.73-461.35,24.59-199.06,121.46-299.75,16.57-414.7,86.99"/><path class="cls-53" d="m490.23,329.61c-171.97,114.04-266.53-94.74-468.37,27.85-198.79,120.86-297.26,11.9-416.86,85.97"/><path class="cls-50" d="m499.72,330.98c-172.51,114-272.29-91.76-475.38,31.11-198.51,120.27-294.77,7.24-419.01,84.96"/><path class="cls-33" d="m509.22,332.34c-173.05,113.96-278.06-88.77-482.4,34.37-198.23,119.68-292.28,2.57-421.17,83.95"/><path class="cls-22" d="m518.72,333.71c-173.6,113.92-283.82-85.78-489.41,37.63-197.95,119.08-289.79-2.1-423.33,82.94"/><path class="cls-48" d="m528.21,335.07c-174.14,113.88-289.59-82.79-496.43,40.89-197.67,118.49-287.3-6.76-425.48,81.93"/><path class="cls-54" d="m537.71,336.44c-174.68,113.84-295.36-79.8-503.44,44.15-197.4,117.89-284.8-11.43-427.64,80.91"/><path class="cls-24" d="m547.21,337.81c-175.22,113.81-301.12-76.81-510.46,47.4-197.12,117.3-282.31-16.09-429.8,79.9"/><path class="cls-27" d="m556.7,339.17c-175.76,113.77-306.89-73.82-517.47,50.66-196.84,116.71-279.82-20.76-431.96,78.89"/><path class="cls-14" d="m566.2,340.54c-176.3,113.73-312.65-70.84-524.49,53.92-196.56,116.11-277.33-25.43-434.11,77.88"/><path class="cls-9" d="m575.7,341.91c-176.84,113.69-318.42-67.85-531.5,57.18-196.28,115.52-274.84-30.09-436.27,76.87"/><path class="cls-36" d="m585.2,343.27c-177.38,113.65-324.19-64.86-538.52,60.44-196.01,114.92-272.35-34.76-438.43,75.86"/><path class="cls-32" d="m594.69,344.64c-177.93,113.61-329.95-61.87-545.53,63.7-195.73,114.33-269.86-39.42-440.58,74.84"/><path class="cls-8" d="m604.19,346c-178.47,113.57-335.72-58.88-552.55,66.96-195.45,113.74-267.37-44.09-442.74,73.83"/><path class="cls-47" d="m613.69,347.37c-179.01,113.53-341.48-55.89-559.56,70.22-195.17,113.14-264.88-48.75-444.9,72.82"/><path class="cls-38" d="m623.18,348.74c-179.55,113.49-347.25-52.9-566.58,73.48-194.89,112.55-262.39-53.42-447.06,71.81"/><path class="cls-41" d="m632.68,350.1c-180.09,113.46-353.02-49.92-573.59,76.74-194.62,111.95-259.89-58.09-449.21,70.8"/><path class="cls-10" d="m642.18,351.47c-180.63,113.42-358.78-46.93-580.61,80-194.34,111.36-257.4-62.75-451.37,69.78"/><path class="cls-46" d="m651.67,352.83c-181.17,113.38-364.55-43.94-587.62,83.26-194.06,110.77-254.91-67.42-453.53,68.77"/><path class="cls-5" d="m661.17,354.2c-181.71,113.34-370.31-40.95-594.64,86.52-193.78,110.17-252.42-72.08-455.69,67.76"/><path class="cls-23" d="m670.67,355.57c-182.26,113.3-376.08-37.96-601.65,89.78-193.5,109.58-249.93-76.75-457.84,66.75"/></g><g class="cls-16"><circle class="cls-18" cx="37.21" cy="-59.93" r="107.66"/><circle class="cls-52" cx="36.34" cy="-54.15" r="104.45"/><circle class="cls-17" cx="35.46" cy="-48.38" r="101.25"/><circle class="cls-21" cx="34.59" cy="-42.61" r="98.04"/><circle class="cls-11" cx="33.72" cy="-36.83" r="94.83"/><circle class="cls-28" cx="32.85" cy="-31.06" r="91.62"/><circle class="cls-19" cx="31.98" cy="-25.29" r="88.41"/><circle class="cls-44" cx="31.11" cy="-19.51" r="85.2"/><circle class="cls-49" cx="30.24" cy="-13.74" r="81.99"/><circle class="cls-4" cx="29.37" cy="-7.96" r="78.78"/><circle class="cls-43" cx="28.5" cy="-2.19" r="75.57"/><circle class="cls-42" cx="27.63" cy="3.58" r="72.36"/><circle class="cls-57" cx="26.76" cy="9.36" r="69.15"/><circle class="cls-29" cx="25.89" cy="15.13" r="65.94"/><circle class="cls-56" cx="25.02" cy="20.9" r="62.73"/><circle class="cls-37" cx="24.15" cy="26.68" r="59.52"/><circle class="cls-20" cx="29.95" cy="22.9" r="61.95"/><circle class="cls-31" cx="35.75" cy="19.12" r="64.39"/><circle class="cls-45" cx="41.55" cy="15.34" r="66.82"/><circle class="cls-25" cx="47.35" cy="11.56" r="69.25"/><circle class="cls-15" cx="53.15" cy="7.78" r="71.68"/><circle class="cls-55" cx="58.95" cy="4" r="74.11"/><circle class="cls-35" cx="64.76" cy=".22" r="76.54"/><circle class="cls-6" cx="70.56" cy="-3.56" r="78.97"/><circle class="cls-39" cx="76.36" cy="-7.34" r="81.4"/><circle class="cls-2" cx="82.16" cy="-11.12" r="83.83"/><circle class="cls-26" cx="87.96" cy="-14.9" r="86.26"/></g><circle class="cls-60" cx="59.92" cy="251.47" r="19.19"/><circle class="cls-58" cx="355.24" cy="532.01" r="36.3"/><circle class="cls-59" cx="355.24" cy="145.35" r="14.52"/></svg>