<?xml version="1.0" encoding="UTF-8"?><svg id="Layer_1" xmlns="http://www.w3.org/2000/svg" xmlns:xlink="http://www.w3.org/1999/xlink" viewBox="0 0 1920 1080"><defs><style>.cls-1{stroke:url(#linear-gradient-2);}.cls-1,.cls-2,.cls-3,.cls-4,.cls-5,.cls-6,.cls-7,.cls-8,.cls-9,.cls-10,.cls-11,.cls-12,.cls-13,.cls-14,.cls-15,.cls-16,.cls-17,.cls-18,.cls-19,.cls-20,.cls-21,.cls-22,.cls-23,.cls-24,.cls-25,.cls-26,.cls-27,.cls-28,.cls-29,.cls-30,.cls-31,.cls-32,.cls-33,.cls-34,.cls-35,.cls-36,.cls-37,.cls-38,.cls-39,.cls-40,.cls-41,.cls-42,.cls-43,.cls-44,.cls-45,.cls-46,.cls-47,.cls-48,.cls-49,.cls-50,.cls-51,.cls-52,.cls-53,.cls-54,.cls-55,.cls-56,.cls-57,.cls-58,.cls-59,.cls-60,.cls-61,.cls-62,.cls-63,.cls-64,.cls-65,.cls-66,.cls-67,.cls-68,.cls-69,.cls-70,.cls-71,.cls-72,.cls-73,.cls-74,.cls-75,.cls-76,.cls-77,.cls-78,.cls-79,.cls-80,.cls-81,.cls-82,.cls-83,.cls-84,.cls-85,.cls-86,.cls-87,.cls-88,.cls-89,.cls-90,.cls-91,.cls-92,.cls-93,.cls-94,.cls-95,.cls-96,.cls-97,.cls-98,.cls-99,.cls-100,.cls-101,.cls-102,.cls-103,.cls-104,.cls-105,.cls-106,.cls-107,.cls-108,.cls-109,.cls-110,.cls-111,.cls-112,.cls-113,.cls-114,.cls-115,.cls-116,.cls-117,.cls-118,.cls-119,.cls-120,.cls-121,.cls-122,.cls-123,.cls-124,.cls-125,.cls-126,.cls-127,.cls-128,.cls-129,.cls-130,.cls-131,.cls-132,.cls-133,.cls-134,.cls-135,.cls-136,.cls-137,.cls-138,.cls-139{fill:none;}.cls-1,.cls-2,.cls-3,.cls-4,.cls-5,.cls-6,.cls-7,.cls-8,.cls-9,.cls-10,.cls-11,.cls-12,.cls-13,.cls-14,.cls-15,.cls-16,.cls-17,.cls-18,.cls-19,.cls-20,.cls-21,.cls-22,.cls-23,.cls-24,.cls-25,.cls-26,.cls-27,.cls-28,.cls-29,.cls-30,.cls-32,.cls-33,.cls-34,.cls-35,.cls-36,.cls-37,.cls-38,.cls-39,.cls-40,.cls-41,.cls-42,.cls-43,.cls-44,.cls-45,.cls-46,.cls-47,.cls-48,.cls-49,.cls-50,.cls-51,.cls-52,.cls-53,.cls-54,.cls-55,.cls-56,.cls-57,.cls-58,.cls-59,.cls-60,.cls-61,.cls-62,.cls-63,.cls-64,.cls-65,.cls-66,.cls-67,.cls-68,.cls-69,.cls-70,.cls-71,.cls-72,.cls-73,.cls-74,.cls-75,.cls-76,.cls-77,.cls-78,.cls-79,.cls-80,.cls-81,.cls-82,.cls-83,.cls-84,.cls-85,.cls-86,.cls-87,.cls-88,.cls-89,.cls-90,.cls-91,.cls-92,.cls-93,.cls-94,.cls-95,.cls-96,.cls-97,.cls-98,.cls-99,.cls-100,.cls-101,.cls-102,.cls-103,.cls-104,.cls-105,.cls-106,.cls-107,.cls-108,.cls-109,.cls-110,.cls-111,.cls-112,.cls-113,.cls-114,.cls-115,.cls-116,.cls-117,.cls-118,.cls-119,.cls-120,.cls-121,.cls-122,.cls-123,.cls-124,.cls-125,.cls-126,.cls-127,.cls-128,.cls-129,.cls-130,.cls-131,.cls-132,.cls-133,.cls-134,.cls-135,.cls-136,.cls-137,.cls-138,.cls-139{stroke-miterlimit:10;}.cls-2{stroke:url(#Gold_Effect-31);}.cls-3{stroke:url(#Gold_Effect-26);}.cls-4{stroke:url(#linear-gradient-3);}.cls-5{stroke:url(#Gold_Effect-10);}.cls-6{stroke:url(#linear-gradient-28);}.cls-7{stroke:url(#linear-gradient-64);}.cls-8{stroke:url(#Gold_Effect-24);}.cls-9{stroke:url(#linear-gradient-9);}.cls-10{stroke:url(#linear-gradient-37);}.cls-11{stroke:url(#linear-gradient-76);}.cls-12{stroke:url(#Gold_Effect-28);}.cls-13{stroke:url(#linear-gradient-53);}.cls-14{stroke:url(#linear-gradient-58);}.cls-15{stroke:url(#linear-gradient-22);}.cls-16{stroke:url(#Gold_Effect-52);}.cls-17{stroke:url(#linear-gradient-19);}.cls-18{stroke:url(#linear-gradient-70);}.cls-19{stroke:url(#linear-gradient-26);}.cls-20{stroke:url(#Gold_Effect-5);}.cls-21{stroke:url(#linear-gradient-4);}.cls-22{stroke:url(#linear-gradient-61);}.cls-23{stroke:url(#linear-gradient-6);}.cls-24{stroke:url(#Gold_Effect-46);}.cls-25{stroke:url(#linear-gradient-18);}.cls-26{stroke:url(#Gold_Effect-21);}.cls-27{stroke:url(#Gold_Effect-38);}.cls-28{stroke:url(#Gold_Effect-48);}.cls-29{stroke:url(#linear-gradient-74);}.cls-30{stroke:url(#linear-gradient-50);}.cls-31{opacity:.7;}.cls-32{stroke:url(#Gold_Effect-3);}.cls-33{stroke:url(#Gold_Effect);}.cls-34{stroke:url(#Gold_Effect-7);}.cls-35{stroke:url(#Gold_Effect-33);}.cls-36{stroke:url(#Gold_Effect-17);}.cls-37{stroke:url(#Gold_Effect-29);}.cls-38{stroke:url(#Gold_Effect-61);}.cls-39{stroke:url(#Gold_Effect-42);}.cls-40{stroke:url(#Gold_Effect-4);}.cls-41{stroke:url(#linear-gradient-13);}.cls-42{stroke:url(#linear-gradient-63);}.cls-43{stroke:url(#Gold_Effect-45);}.cls-140{fill:url(#linear-gradient-80);}.cls-140,.cls-141{opacity:.8;}.cls-44{stroke:url(#linear-gradient-29);}.cls-45{stroke:url(#linear-gradient-16);}.cls-46{stroke:url(#Gold_Effect-39);}.cls-47{stroke:url(#Gold_Effect-20);}.cls-48{stroke:url(#Gold_Effect-35);}.cls-49{stroke:url(#Gold_Effect-27);}.cls-50{stroke:url(#Gold_Effect-56);}.cls-142{fill:url(#linear-gradient-81);opacity:.4;}.cls-51{stroke:url(#linear-gradient-69);}.cls-52{stroke:url(#linear-gradient-17);}.cls-53{stroke:url(#linear-gradient-48);}.cls-54{stroke:url(#Gold_Effect-32);}.cls-141{fill:url(#linear-gradient-79);}.cls-55{stroke:url(#Gold_Effect-6);}.cls-56{stroke:url(#linear-gradient-55);}.cls-57{stroke:url(#Gold_Effect-49);}.cls-58{stroke:url(#Gold_Effect-44);}.cls-59{stroke:url(#linear-gradient-30);}.cls-60{stroke:url(#linear-gradient-52);}.cls-61{stroke:url(#Gold_Effect-55);}.cls-62{stroke:url(#Gold_Effect-14);}.cls-63{stroke:url(#Gold_Effect-57);}.cls-64{stroke:url(#linear-gradient-7);}.cls-65{stroke:url(#linear-gradient-39);}.cls-66{stroke:url(#Gold_Effect-18);}.cls-67{stroke:url(#Gold_Effect-40);}.cls-68{stroke:url(#linear-gradient-21);}.cls-69{stroke:url(#Gold_Effect-54);}.cls-70{stroke:url(#linear-gradient-12);}.cls-71{stroke:url(#linear-gradient-67);}.cls-72{stroke:url(#linear-gradient-5);}.cls-73{stroke:url(#linear-gradient-38);}.cls-74{stroke:url(#Gold_Effect-23);}.cls-75{stroke:url(#linear-gradient-59);}.cls-76{stroke:url(#Gold_Effect-60);}.cls-77{stroke:url(#Gold_Effect-43);}.cls-78{stroke:url(#Gold_Effect-47);}.cls-79{stroke:url(#linear-gradient-60);}.cls-80{stroke:url(#linear-gradient-66);}.cls-81{stroke:url(#linear-gradient-51);}.cls-82{stroke:url(#linear-gradient-54);}.cls-83{stroke:url(#Gold_Effect-58);}.cls-84{stroke:url(#Gold_Effect-59);}.cls-85{stroke:url(#linear-gradient-32);}.cls-86{stroke:url(#linear-gradient-36);}.cls-143{fill:url(#linear-gradient-82);opacity:.92;}.cls-87{stroke:url(#Gold_Effect-50);}.cls-88{stroke:url(#linear-gradient-20);}.cls-89{stroke:url(#linear-gradient-73);}.cls-90{stroke:url(#Gold_Effect-16);}.cls-91{stroke:url(#linear-gradient-24);}.cls-92{stroke:url(#linear-gradient-57);}.cls-93{stroke:url(#Gold_Effect-25);}.cls-94{stroke:url(#linear-gradient-33);}.cls-95{stroke:url(#linear-gradient-31);}.cls-96{stroke:url(#Gold_Effect-53);}.cls-97{stroke:url(#linear-gradient);}.cls-98{stroke:url(#linear-gradient-25);}.cls-99{stroke:url(#Gold_Effect-12);}.cls-144{fill:url(#linear-gradient-83);opacity:.65;}.cls-100{stroke:url(#linear-gradient-68);}.cls-101{stroke:url(#Gold_Effect-11);}.cls-145{fill:url(#linear-gradient-84);opacity:.5;}.cls-102{stroke:url(#linear-gradient-35);}.cls-103{stroke:url(#linear-gradient-62);}.cls-104{stroke:url(#Gold_Effect-41);}.cls-105{stroke:url(#linear-gradient-72);}.cls-106{stroke:url(#Gold_Effect-30);}.cls-107{stroke:url(#Gold_Effect-8);}.cls-108{stroke:url(#linear-gradient-75);}.cls-109{stroke:url(#linear-gradient-46);}.cls-110{stroke:url(#linear-gradient-71);}.cls-111{stroke:url(#linear-gradient-49);}.cls-112{stroke:url(#Gold_Effect-19);}.cls-113{stroke:url(#linear-gradient-27);}.cls-114{stroke:url(#Gold_Effect-34);}.cls-115{stroke:url(#linear-gradient-23);}.cls-116{stroke:url(#linear-gradient-14);}.cls-117{stroke:url(#linear-gradient-41);}.cls-118{stroke:url(#linear-gradient-44);}.cls-119{stroke:url(#Gold_Effect-9);}.cls-120{stroke:url(#linear-gradient-42);}.cls-121{stroke:url(#linear-gradient-34);}.cls-122{stroke:url(#linear-gradient-11);}.cls-123{stroke:url(#linear-gradient-8);}.cls-124{stroke:url(#Gold_Effect-2);}.cls-125{stroke:url(#linear-gradient-47);}.cls-126{stroke:url(#linear-gradient-65);}.cls-127{stroke:url(#linear-gradient-40);}.cls-128{stroke:url(#linear-gradient-10);}.cls-129{stroke:url(#Gold_Effect-36);}.cls-130{stroke:url(#linear-gradient-15);}.cls-131{stroke:url(#linear-gradient-43);}.cls-132{stroke:url(#Gold_Effect-22);}.cls-133{stroke:url(#linear-gradient-77);}.cls-134{stroke:url(#Gold_Effect-15);}.cls-135{stroke:url(#linear-gradient-45);}.cls-136{stroke:url(#Gold_Effect-37);}.cls-137{stroke:url(#Gold_Effect-13);}.cls-138{stroke:url(#linear-gradient-56);}.cls-146{fill:url(#linear-gradient-78);opacity:.75;}.cls-139{stroke:url(#Gold_Effect-51);}</style><linearGradient id="linear-gradient" x1="292.51" y1="911.53" x2="1546.96" y2="911.53" gradientTransform="translate(2576.92 1947.25) rotate(172.99) scale(1.58 1.6)" gradientUnits="userSpaceOnUse"><stop offset=".12" stop-color="#f6e27b"/><stop offset=".29" stop-color="#ca9a50"/><stop offset=".44" stop-color="#f6e27b"/><stop offset=".5" stop-color="#f6f2c1"/><stop offset=".57" stop-color="#f6e27b"/><stop offset=".74" stop-color="#ca9a50"/><stop offset=".85" stop-color="#f6e27b"/><stop offset="1" stop-color="#f6f2c1"/></linearGradient><linearGradient id="linear-gradient-2" x1="292.52" y1="914.17" x2="1547.45" y2="914.17" xlink:href="#linear-gradient"/><linearGradient id="linear-gradient-3" x1="292.54" y1="916.94" x2="1547.94" y2="916.94" xlink:href="#linear-gradient"/><linearGradient id="linear-gradient-4" x1="292.56" y1="919.85" x2="1548.43" y2="919.85" xlink:href="#linear-gradient"/><linearGradient id="linear-gradient-5" x1="292.58" y1="922.94" x2="1548.91" y2="922.94" xlink:href="#linear-gradient"/><linearGradient id="linear-gradient-6" x1="292.6" y1="926.23" x2="1549.4" y2="926.23" xlink:href="#linear-gradient"/><linearGradient id="linear-gradient-7" x1="292.62" y1="929.74" x2="1549.88" y2="929.74" xlink:href="#linear-gradient"/><linearGradient id="linear-gradient-8" x1="292.65" y1="933.49" x2="1550.36" y2="933.49" xlink:href="#linear-gradient"/><linearGradient id="linear-gradient-9" x1="292.67" y1="937.47" x2="1550.84" y2="937.47" xlink:href="#linear-gradient"/><linearGradient id="linear-gradient-10" x1="292.7" y1="941.65" x2="1551.32" y2="941.65" xlink:href="#linear-gradient"/><linearGradient id="linear-gradient-11" x1="292.73" y1="946.03" x2="1551.8" y2="946.03" xlink:href="#linear-gradient"/><linearGradient id="linear-gradient-12" x1="292.76" y1="950.54" x2="1552.28" y2="950.54" xlink:href="#linear-gradient"/><linearGradient id="linear-gradient-13" x1="292.8" y1="955.16" x2="1552.75" y2="955.16" xlink:href="#linear-gradient"/><linearGradient id="linear-gradient-14" x1="292.83" y1="959.85" x2="1553.23" y2="959.85" xlink:href="#linear-gradient"/><linearGradient id="linear-gradient-15" x1="292.81" y1="964.57" x2="1553.7" y2="964.57" xlink:href="#linear-gradient"/><linearGradient id="linear-gradient-16" x1="292.78" y1="969.29" x2="1554.22" y2="969.29" xlink:href="#linear-gradient"/><linearGradient id="linear-gradient-17" x1="292.75" y1="974.01" x2="1554.75" y2="974.01" xlink:href="#linear-gradient"/><linearGradient id="linear-gradient-18" x1="292.72" y1="978.71" x2="1555.28" y2="978.71" xlink:href="#linear-gradient"/><linearGradient id="linear-gradient-19" x1="292.69" y1="983.38" x2="1555.81" y2="983.38" xlink:href="#linear-gradient"/><linearGradient id="linear-gradient-20" x1="292.66" y1="988.02" x2="1556.34" y2="988.02" xlink:href="#linear-gradient"/><linearGradient id="linear-gradient-21" x1="292.64" y1="992.63" x2="1556.87" y2="992.63" xlink:href="#linear-gradient"/><linearGradient id="linear-gradient-22" x1="292.61" y1="993.63" x2="1557.39" y2="993.63" xlink:href="#linear-gradient"/><linearGradient id="linear-gradient-23" x1="292.59" y1="993.89" x2="1557.92" y2="993.89" xlink:href="#linear-gradient"/><linearGradient id="linear-gradient-24" x1="292.57" y1="994.12" x2="1558.45" y2="994.12" xlink:href="#linear-gradient"/><linearGradient id="linear-gradient-25" x1="292.55" y1="994.32" x2="1558.97" y2="994.32" xlink:href="#linear-gradient"/><linearGradient id="linear-gradient-26" x1="287.13" y1="991.35" x2="1559.04" y2="991.35" xlink:href="#linear-gradient"/><linearGradient id="linear-gradient-27" x1="281.72" y1="988.38" x2="1559.11" y2="988.38" xlink:href="#linear-gradient"/><linearGradient id="linear-gradient-28" x1="276.3" y1="985.41" x2="1559.18" y2="985.41" xlink:href="#linear-gradient"/><linearGradient id="linear-gradient-29" x1="270.88" y1="982.44" x2="1559.25" y2="982.44" xlink:href="#linear-gradient"/><linearGradient id="linear-gradient-30" x1="265.46" y1="979.47" x2="1559.32" y2="979.47" xlink:href="#linear-gradient"/><linearGradient id="linear-gradient-31" x1="260.05" y1="976.49" x2="1559.39" y2="976.49" xlink:href="#linear-gradient"/><linearGradient id="linear-gradient-32" x1="254.63" y1="973.52" x2="1559.46" y2="973.52" xlink:href="#linear-gradient"/><linearGradient id="linear-gradient-33" x1="249.21" y1="970.55" x2="1559.53" y2="970.55" xlink:href="#linear-gradient"/><linearGradient id="linear-gradient-34" x1="243.8" y1="967.58" x2="1559.6" y2="967.58" xlink:href="#linear-gradient"/><linearGradient id="linear-gradient-35" x1="238.38" y1="964.61" x2="1559.68" y2="964.61" xlink:href="#linear-gradient"/><linearGradient id="linear-gradient-36" x1="232.96" y1="961.65" x2="1559.75" y2="961.65" xlink:href="#linear-gradient"/><linearGradient id="linear-gradient-37" x1="227.55" y1="958.68" x2="1559.82" y2="958.68" xlink:href="#linear-gradient"/><linearGradient id="linear-gradient-38" x1="222.13" y1="955.71" x2="1559.89" y2="955.71" xlink:href="#linear-gradient"/><linearGradient id="linear-gradient-39" x1="216.71" y1="952.74" x2="1559.96" y2="952.74" xlink:href="#linear-gradient"/><linearGradient id="linear-gradient-40" x1="211.29" y1="949.77" x2="1560.03" y2="949.77" xlink:href="#linear-gradient"/><linearGradient id="linear-gradient-41" x1="205.88" y1="946.8" x2="1560.1" y2="946.8" xlink:href="#linear-gradient"/><linearGradient id="linear-gradient-42" x1="200.46" y1="943.84" x2="1560.17" y2="943.84" xlink:href="#linear-gradient"/><linearGradient id="linear-gradient-43" x1="195.04" y1="940.87" x2="1560.24" y2="940.87" xlink:href="#linear-gradient"/><linearGradient id="linear-gradient-44" x1="189.63" y1="937.9" x2="1560.31" y2="937.9" xlink:href="#linear-gradient"/><linearGradient id="linear-gradient-45" x1="184.21" y1="934.94" x2="1560.38" y2="934.94" xlink:href="#linear-gradient"/><linearGradient id="linear-gradient-46" x1="178.79" y1="931.97" x2="1560.45" y2="931.97" xlink:href="#linear-gradient"/><linearGradient id="linear-gradient-47" x1="173.37" y1="929" x2="1560.52" y2="929" xlink:href="#linear-gradient"/><linearGradient id="linear-gradient-48" x1="167.96" y1="926.04" x2="1560.59" y2="926.04" xlink:href="#linear-gradient"/><linearGradient id="linear-gradient-49" x1="162.54" y1="923.07" x2="1560.66" y2="923.07" xlink:href="#linear-gradient"/><linearGradient id="linear-gradient-50" x1="157.12" y1="920.11" x2="1560.73" y2="920.11" xlink:href="#linear-gradient"/><linearGradient id="linear-gradient-51" x1="151.71" y1="917.14" x2="1560.8" y2="917.14" xlink:href="#linear-gradient"/><linearGradient id="linear-gradient-52" x1="146.29" y1="914.18" x2="1560.87" y2="914.18" xlink:href="#linear-gradient"/><linearGradient id="linear-gradient-53" x1="140.87" y1="911.22" x2="1560.94" y2="911.22" xlink:href="#linear-gradient"/><linearGradient id="linear-gradient-54" x1="135.46" y1="908.25" x2="1561.01" y2="908.25" xlink:href="#linear-gradient"/><linearGradient id="linear-gradient-55" x1="130.04" y1="905.29" x2="1561.08" y2="905.29" xlink:href="#linear-gradient"/><linearGradient id="linear-gradient-56" x1="124.62" y1="902.33" x2="1561.15" y2="902.33" xlink:href="#linear-gradient"/><linearGradient id="linear-gradient-57" x1="119.2" y1="899.37" x2="1561.22" y2="899.37" xlink:href="#linear-gradient"/><linearGradient id="linear-gradient-58" x1="113.79" y1="896.4" x2="1561.29" y2="896.4" xlink:href="#linear-gradient"/><linearGradient id="linear-gradient-59" x1="108.37" y1="892.89" x2="1561.36" y2="892.89" xlink:href="#linear-gradient"/><linearGradient id="linear-gradient-60" x1="102.95" y1="889.35" x2="1561.43" y2="889.35" xlink:href="#linear-gradient"/><linearGradient id="linear-gradient-61" x1="97.54" y1="885.81" x2="1561.5" y2="885.81" xlink:href="#linear-gradient"/><linearGradient id="linear-gradient-62" x1="92.12" y1="882.27" x2="1561.57" y2="882.27" xlink:href="#linear-gradient"/><linearGradient id="linear-gradient-63" x1="86.7" y1="878.73" x2="1561.64" y2="878.73" xlink:href="#linear-gradient"/><linearGradient id="linear-gradient-64" x1="81.29" y1="875.18" x2="1561.71" y2="875.18" xlink:href="#linear-gradient"/><linearGradient id="linear-gradient-65" x1="75.87" y1="871.63" x2="1561.78" y2="871.63" xlink:href="#linear-gradient"/><linearGradient id="linear-gradient-66" x1="70.45" y1="868.07" x2="1561.85" y2="868.07" xlink:href="#linear-gradient"/><linearGradient id="linear-gradient-67" x1="65.03" y1="864.52" x2="1561.92" y2="864.52" xlink:href="#linear-gradient"/><linearGradient id="linear-gradient-68" x1="59.62" y1="860.96" x2="1561.99" y2="860.96" xlink:href="#linear-gradient"/><linearGradient id="linear-gradient-69" x1="54.2" y1="857.4" x2="1562.06" y2="857.4" xlink:href="#linear-gradient"/><linearGradient id="linear-gradient-70" x1="48.78" y1="853.84" x2="1562.13" y2="853.84" xlink:href="#linear-gradient"/><linearGradient id="linear-gradient-71" x1="43.37" y1="850.27" x2="1562.2" y2="850.27" xlink:href="#linear-gradient"/><linearGradient id="linear-gradient-72" x1="37.95" y1="846.71" x2="1562.27" y2="846.71" xlink:href="#linear-gradient"/><linearGradient id="linear-gradient-73" x1="32.53" y1="843.14" x2="1562.34" y2="843.14" xlink:href="#linear-gradient"/><linearGradient id="linear-gradient-74" x1="27.11" y1="839.57" x2="1562.41" y2="839.57" xlink:href="#linear-gradient"/><linearGradient id="linear-gradient-75" x1="21.7" y1="835.99" x2="1562.48" y2="835.99" xlink:href="#linear-gradient"/><linearGradient id="linear-gradient-76" x1="16.28" y1="832.42" x2="1562.55" y2="832.42" xlink:href="#linear-gradient"/><linearGradient id="linear-gradient-77" x1="10.86" y1="828.84" x2="1562.62" y2="828.84" xlink:href="#linear-gradient"/><linearGradient id="Gold_Effect" x1="206.1" y1="-126.12" x2="700.4" y2="-126.12" gradientUnits="userSpaceOnUse"><stop offset="0" stop-color="#604442"/><stop offset=".03" stop-color="#846146"/><stop offset=".07" stop-color="#a27a4a"/><stop offset=".1" stop-color="#b88b4d"/><stop offset=".14" stop-color="#c5964f"/><stop offset=".17" stop-color="#ca9a50"/><stop offset=".44" stop-color="#f6e27b"/><stop offset=".5" stop-color="#f6f2c1"/><stop offset=".57" stop-color="#f6e27b"/><stop offset=".85" stop-color="#ca9a50"/><stop offset="1" stop-color="#604442"/></linearGradient><linearGradient id="Gold_Effect-2" x1="208.47" y1="-120.28" x2="696.28" y2="-120.28" xlink:href="#Gold_Effect"/><linearGradient id="Gold_Effect-3" x1="210.83" y1="-114.44" x2="692.15" y2="-114.44" xlink:href="#Gold_Effect"/><linearGradient id="Gold_Effect-4" x1="213.2" y1="-108.61" x2="688.03" y2="-108.61" xlink:href="#Gold_Effect"/><linearGradient id="Gold_Effect-5" x1="215.56" y1="-102.77" x2="683.91" y2="-102.77" xlink:href="#Gold_Effect"/><linearGradient id="Gold_Effect-6" x1="217.92" y1="-96.94" x2="679.78" y2="-96.94" xlink:href="#Gold_Effect"/><linearGradient id="Gold_Effect-7" x1="220.29" y1="-91.1" x2="675.66" y2="-91.1" xlink:href="#Gold_Effect"/><linearGradient id="Gold_Effect-8" x1="222.65" y1="-85.27" x2="671.54" y2="-85.27" xlink:href="#Gold_Effect"/><linearGradient id="Gold_Effect-9" x1="225.01" y1="-79.43" x2="667.41" y2="-79.43" xlink:href="#Gold_Effect"/><linearGradient id="Gold_Effect-10" x1="227.38" y1="-73.6" x2="663.29" y2="-73.6" xlink:href="#Gold_Effect"/><linearGradient id="Gold_Effect-11" x1="229.74" y1="-67.76" x2="659.17" y2="-67.76" xlink:href="#Gold_Effect"/><linearGradient id="Gold_Effect-12" x1="232.11" y1="-61.93" x2="655.04" y2="-61.93" xlink:href="#Gold_Effect"/><linearGradient id="Gold_Effect-13" x1="234.47" y1="-56.09" x2="650.92" y2="-56.09" xlink:href="#Gold_Effect"/><linearGradient id="Gold_Effect-14" x1="236.83" y1="-50.26" x2="646.79" y2="-50.26" xlink:href="#Gold_Effect"/><linearGradient id="Gold_Effect-15" x1="239.2" y1="-44.42" x2="642.67" y2="-44.42" xlink:href="#Gold_Effect"/><linearGradient id="Gold_Effect-16" x1="241.56" y1="-38.59" x2="638.55" y2="-38.59" xlink:href="#Gold_Effect"/><linearGradient id="Gold_Effect-17" x1="243.92" y1="-32.75" x2="634.42" y2="-32.75" xlink:href="#Gold_Effect"/><linearGradient id="Gold_Effect-18" x1="246.29" y1="-26.92" x2="630.3" y2="-26.92" xlink:href="#Gold_Effect"/><linearGradient id="Gold_Effect-19" x1="248.65" y1="-21.08" x2="626.18" y2="-21.08" xlink:href="#Gold_Effect"/><linearGradient id="Gold_Effect-20" x1="251.01" y1="-15.25" x2="622.05" y2="-15.25" xlink:href="#Gold_Effect"/><linearGradient id="Gold_Effect-21" x1="253.38" y1="-9.41" x2="617.93" y2="-9.41" xlink:href="#Gold_Effect"/><linearGradient id="Gold_Effect-22" x1="255.74" y1="-3.57" x2="613.81" y2="-3.57" xlink:href="#Gold_Effect"/><linearGradient id="Gold_Effect-23" x1="258.11" y1="2.26" x2="609.68" y2="2.26" xlink:href="#Gold_Effect"/><linearGradient id="Gold_Effect-24" x1="260.47" y1="8.1" x2="605.56" y2="8.1" xlink:href="#Gold_Effect"/><linearGradient id="Gold_Effect-25" x1="262.83" y1="13.93" x2="601.44" y2="13.93" xlink:href="#Gold_Effect"/><linearGradient id="Gold_Effect-26" x1="265.2" y1="19.77" x2="597.31" y2="19.77" xlink:href="#Gold_Effect"/><linearGradient id="Gold_Effect-27" x1="267.56" y1="25.6" x2="593.19" y2="25.6" xlink:href="#Gold_Effect"/><linearGradient id="Gold_Effect-28" x1="269.92" y1="31.44" x2="589.06" y2="31.44" xlink:href="#Gold_Effect"/><linearGradient id="Gold_Effect-29" x1="272.29" y1="37.27" x2="584.94" y2="37.27" xlink:href="#Gold_Effect"/><linearGradient id="Gold_Effect-30" x1="274.65" y1="43.11" x2="580.82" y2="43.11" xlink:href="#Gold_Effect"/><linearGradient id="Gold_Effect-31" x1="277.02" y1="48.94" x2="576.69" y2="48.94" xlink:href="#Gold_Effect"/><linearGradient id="Gold_Effect-32" x1="279.38" y1="54.78" x2="572.57" y2="54.78" xlink:href="#Gold_Effect"/><linearGradient id="Gold_Effect-33" x1="281.74" y1="60.61" x2="568.45" y2="60.61" xlink:href="#Gold_Effect"/><linearGradient id="Gold_Effect-34" x1="284.11" y1="66.45" x2="564.32" y2="66.45" xlink:href="#Gold_Effect"/><linearGradient id="Gold_Effect-35" x1="286.47" y1="72.28" x2="560.2" y2="72.28" xlink:href="#Gold_Effect"/><linearGradient id="Gold_Effect-36" x1="289.74" y1="68.62" x2="568.18" y2="68.62" xlink:href="#Gold_Effect"/><linearGradient id="Gold_Effect-37" x1="293" y1="64.96" x2="576.16" y2="64.96" xlink:href="#Gold_Effect"/><linearGradient id="Gold_Effect-38" x1="296.27" y1="61.3" x2="584.13" y2="61.3" xlink:href="#Gold_Effect"/><linearGradient id="Gold_Effect-39" x1="299.54" y1="57.63" x2="592.11" y2="57.63" xlink:href="#Gold_Effect"/><linearGradient id="Gold_Effect-40" x1="302.81" y1="53.97" x2="600.09" y2="53.97" xlink:href="#Gold_Effect"/><linearGradient id="Gold_Effect-41" x1="306.07" y1="50.31" x2="608.07" y2="50.31" xlink:href="#Gold_Effect"/><linearGradient id="Gold_Effect-42" x1="309.34" y1="46.64" x2="616.05" y2="46.64" xlink:href="#Gold_Effect"/><linearGradient id="Gold_Effect-43" x1="312.61" y1="42.98" x2="624.03" y2="42.98" xlink:href="#Gold_Effect"/><linearGradient id="Gold_Effect-44" x1="315.88" y1="39.32" x2="632.01" y2="39.32" xlink:href="#Gold_Effect"/><linearGradient id="Gold_Effect-45" x1="319.14" y1="35.65" x2="639.99" y2="35.65" xlink:href="#Gold_Effect"/><linearGradient id="Gold_Effect-46" x1="322.41" y1="31.99" x2="647.96" y2="31.99" xlink:href="#Gold_Effect"/><linearGradient id="Gold_Effect-47" x1="325.68" y1="28.33" x2="655.94" y2="28.33" xlink:href="#Gold_Effect"/><linearGradient id="Gold_Effect-48" x1="328.94" y1="24.67" x2="663.92" y2="24.67" xlink:href="#Gold_Effect"/><linearGradient id="Gold_Effect-49" x1="332.21" y1="21" x2="671.9" y2="21" xlink:href="#Gold_Effect"/><linearGradient id="Gold_Effect-50" x1="335.48" y1="17.34" x2="679.88" y2="17.34" xlink:href="#Gold_Effect"/><linearGradient id="Gold_Effect-51" x1="338.75" y1="13.68" x2="687.86" y2="13.68" xlink:href="#Gold_Effect"/><linearGradient id="Gold_Effect-52" x1="342.01" y1="10.01" x2="695.84" y2="10.01" xlink:href="#Gold_Effect"/><linearGradient id="Gold_Effect-53" x1="345.28" y1="6.35" x2="703.81" y2="6.35" xlink:href="#Gold_Effect"/><linearGradient id="Gold_Effect-54" x1="348.55" y1="2.69" x2="711.79" y2="2.69" xlink:href="#Gold_Effect"/><linearGradient id="Gold_Effect-55" x1="351.82" y1="-.97" x2="719.77" y2="-.97" xlink:href="#Gold_Effect"/><linearGradient id="Gold_Effect-56" x1="355.08" y1="-4.64" x2="727.75" y2="-4.64" xlink:href="#Gold_Effect"/><linearGradient id="Gold_Effect-57" x1="358.35" y1="-8.3" x2="735.73" y2="-8.3" xlink:href="#Gold_Effect"/><linearGradient id="Gold_Effect-58" x1="361.62" y1="-11.96" x2="743.71" y2="-11.96" xlink:href="#Gold_Effect"/><linearGradient id="Gold_Effect-59" x1="364.88" y1="-15.63" x2="751.69" y2="-15.63" xlink:href="#Gold_Effect"/><linearGradient id="Gold_Effect-60" x1="368.15" y1="-19.29" x2="759.66" y2="-19.29" xlink:href="#Gold_Effect"/><linearGradient id="Gold_Effect-61" x1="371.42" y1="-22.95" x2="767.64" y2="-22.95" xlink:href="#Gold_Effect"/><linearGradient id="linear-gradient-78" x1="509.31" y1="542.55" x2="571.48" y2="480.38" gradientUnits="userSpaceOnUse"><stop offset="0" stop-color="#111525"/><stop offset=".12" stop-color="#1e1e28"/><stop offset=".34" stop-color="#423830"/><stop offset=".64" stop-color="#7c623e"/><stop offset="1" stop-color="#ca9a50"/></linearGradient><linearGradient id="linear-gradient-79" x1="1705.69" y1="1125.54" x2="1823.31" y2="1007.92" gradientTransform="translate(2311.99 -921.47) rotate(76.84)" xlink:href="#linear-gradient-78"/><linearGradient id="linear-gradient-80" x1="1651.62" y1="177.32" x2="1698.66" y2="130.28" xlink:href="#linear-gradient-78"/><linearGradient id="linear-gradient-81" x1="163.76" y1="449.76" x2="249.45" y2="364.06" xlink:href="#linear-gradient-78"/><linearGradient id="linear-gradient-82" x1="-17.96" y1="1127.02" x2="44.21" y2="1064.85" xlink:href="#linear-gradient-78"/><linearGradient id="linear-gradient-83" x1="-50.27" y1="197.11" x2="132.03" y2="14.8" gradientTransform="translate(-72.26 115.8) rotate(-73.87)" xlink:href="#linear-gradient-78"/><linearGradient id="linear-gradient-84" x1="1799.59" y1="412.96" x2="1861.76" y2="350.79" xlink:href="#linear-gradient-78"/></defs><g class="cls-31"><path class="cls-97" d="m-17.25,890.55C767.35,1305.81,1032.54-43.68,1940.83,569.38"/><path class="cls-1" d="m1940.4,565.88c-460.62-285.73-753.56-124.04-1043.69,96.69-278.5,211.94-537.53,407.85-915.54,221.63"/><path class="cls-4" d="m1939.97,562.39c-457.16-258.23-746.84-133.95-1043.74,93.23-285.77,218.77-544.34,391.6-916.64,222.25"/><path class="cls-21" d="m1939.54,558.9c-453.69-230.73-740.13-143.86-1043.78,89.77-293.04,225.6-551.16,375.34-917.74,222.86"/><path class="cls-72" d="m1939.11,555.4c-450.23-203.22-733.41-153.77-1043.83,86.31-300.31,232.43-557.97,359.09-918.84,223.48"/><path class="cls-23" d="m1938.68,551.91c-446.77-175.72-726.69-163.68-1043.88,82.86-307.57,239.27-564.78,342.83-919.95,224.09"/><path class="cls-64" d="m1938.25,548.42c-443.31-148.22-719.98-173.59-1043.92,79.4-314.84,246.1-571.59,326.58-921.05,224.71"/><path class="cls-123" d="m1937.82,544.92c-439.84-120.71-713.26-183.5-1043.97,75.94-322.11,252.93-578.4,310.33-922.15,225.32"/><path class="cls-9" d="m1937.39,541.43c-436.38-93.21-706.55-193.4-1044.01,72.48C564,873.67,308.16,907.98-29.87,839.84"/><path class="cls-128" d="m1936.96,537.94c-432.92-65.71-699.83-203.31-1044.06,69.02C556.26,873.55,300.87,884.77-31.45,833.5"/><path class="cls-122" d="m1936.53,534.44c-429.46-38.2-693.11-213.22-1044.11,65.56-343.91,273.43-598.84,261.56-925.46,227.16"/><path class="cls-70" d="m1936.1,530.95c-425.99-10.7-686.4-223.13-1044.15,62.1-351.18,280.26-605.65,245.31-926.56,227.78"/><path class="cls-41" d="m1935.67,527.45c-422.53,16.81-679.68-233.04-1044.2,58.64-358.45,287.1-612.47,229.05-927.66,228.39"/><path class="cls-116" d="m1935.24,523.96c-419.07,44.31-672.96-242.95-1044.24,55.19-365.72,293.93-619.28,212.8-928.76,229.01"/><path class="cls-130" d="m1934.81,520.47c-415.61,71.81-666.25-252.86-1044.29,51.73-372.98,300.76-626.09,196.54-929.87,229.62"/><path class="cls-45" d="m1934.38,516.97c-412.14,99.32-659.53-262.77-1044.33,48.27-380.25,307.6-632.9,180.29-930.97,230.23"/><path class="cls-52" d="m1933.95,513.48c-408.68,126.82-652.82-272.68-1044.38,44.81C502.05,872.72,249.86,722.32-42.5,789.14"/><path class="cls-25" d="m1933.52,509.99c-405.22,154.32-646.1-282.59-1044.43,41.35C494.31,872.6,242.57,699.12-44.08,782.8"/><path class="cls-17" d="m1933.09,506.49c-401.76,181.83-639.38-292.5-1044.47,37.89C486.56,872.48,235.28,675.91-45.66,776.46"/><path class="cls-88" d="m1932.66,503c-398.29,209.33-632.67-302.41-1044.52,34.43-409.32,334.93-660.15,115.27-935.38,232.69"/><path class="cls-68" d="m1932.23,499.5c-394.83,236.83-625.95-312.32-1044.56,30.97-416.59,341.76-666.96,99.02-936.48,233.31"/><path class="cls-15" d="m1931.8,496.01c-391.37,264.34-619.23-322.22-1044.61,27.52-423.86,348.59-673.77,82.76-937.58,233.92"/><path class="cls-115" d="m1931.37,492.52c-387.91,291.84-612.52-332.13-1044.66,24.06-431.13,355.43-680.59,66.51-938.69,234.53"/><path class="cls-91" d="m1930.94,489.02c-384.44,319.34-605.8-342.04-1044.7,20.6-438.39,362.26-687.4,50.25-939.79,235.15"/><path class="cls-98" d="m1930.51,485.53c-380.98,346.85-599.08-351.95-1044.75,17.14-445.66,369.09-694.21,34-940.89,235.76"/><path class="cls-19" d="m1939.41,487.73c-381.49,346.77-604.32-348.34-1051.13,21.04-445.43,368.33-692.11,28.07-942.94,234.35"/><path class="cls-113" d="m1948.32,489.94c-381.99,346.7-609.55-344.73-1057.51,24.95-445.2,367.58-690,22.14-945,232.94"/><path class="cls-6" d="m1957.22,492.14c-382.5,346.62-614.78-341.12-1063.89,28.85-444.97,366.82-687.89,16.2-947.05,231.53"/><path class="cls-44" d="m1966.12,494.34c-383,346.55-620.01-337.51-1070.27,32.75-444.74,366.06-685.79,10.27-949.11,230.13"/><path class="cls-59" d="m1975.02,496.55c-383.51,346.47-625.24-333.9-1076.65,36.66-444.5,365.31-683.68,4.34-951.16,228.72"/><path class="cls-95" d="m1983.92,498.75c-384.01,346.4-630.47-330.3-1083.03,40.56-444.27,364.55-681.58-1.59-953.22,227.31"/><path class="cls-85" d="m1992.83,500.95c-384.52,346.32-635.7-326.69-1089.41,44.46-444.04,363.79-679.47-7.53-955.27,225.9"/><path class="cls-94" d="m2001.73,503.16c-385.02,346.25-640.93-323.08-1095.79,48.37-443.81,363.04-677.36-13.46-957.32,224.49"/><path class="cls-121" d="m2010.63,505.36c-385.53,346.17-646.16-319.47-1102.17,52.27-443.58,362.28-675.26-19.39-959.38,223.08"/><path class="cls-102" d="m2019.53,507.56c-386.04,346.1-651.39-315.86-1108.56,56.17-443.35,361.52-673.15-25.32-961.43,221.67"/><path class="cls-86" d="m2028.43,509.76c-386.54,346.02-656.62-312.25-1114.94,60.08-443.11,360.77-671.05-31.25-963.49,220.26"/><path class="cls-10" d="m2037.34,511.97c-387.05,345.95-661.85-308.64-1121.32,63.98-442.88,360.01-668.94-37.19-965.54,218.85"/><path class="cls-73" d="m2046.24,514.17c-387.55,345.87-667.08-305.03-1127.7,67.88-442.65,359.25-666.83-43.12-967.59,217.44"/><path class="cls-65" d="m2055.14,516.37c-388.06,345.8-672.31-301.42-1134.08,71.79-442.42,358.49-664.73-49.05-969.65,216.03"/><path class="cls-127" d="m2064.04,518.58c-388.56,345.72-677.54-297.81-1140.46,75.69-442.19,357.74-662.62-54.98-971.7,214.62"/><path class="cls-117" d="m2072.94,520.78c-389.07,345.65-682.77-294.2-1146.84,79.59-441.96,356.98-660.52-60.91-973.76,213.21"/><path class="cls-120" d="m2081.85,522.98c-389.58,345.57-688.01-290.59-1153.22,83.5-441.72,356.22-658.41-66.85-975.81,211.8"/><path class="cls-131" d="m2090.75,525.19c-390.08,345.5-693.24-286.98-1159.6,87.4-441.49,355.47-656.31-72.78-977.86,210.39"/><path class="cls-118" d="m2099.65,527.39c-390.59,345.42-698.47-283.37-1165.98,91.3-441.26,354.71-654.2-78.71-979.92,208.98"/><path class="cls-135" d="m2108.55,529.59c-391.09,345.35-703.7-279.76-1172.36,95.21-441.03,353.95-652.09-84.64-981.97,207.57"/><path class="cls-109" d="m2117.45,531.8c-391.6,345.27-708.93-276.15-1178.74,99.11-440.8,353.2-649.99-90.57-984.03,206.16"/><path class="cls-125" d="m2126.35,534c-392.1,345.19-714.16-272.54-1185.12,103.01-440.57,352.44-647.88-96.51-986.08,204.75"/><path class="cls-53" d="m2135.26,536.2c-392.61,345.12-719.39-268.93-1191.51,106.92-440.33,351.68-645.78-102.44-988.13,203.34"/><path class="cls-111" d="m2144.16,538.41c-393.11,345.04-724.62-265.32-1197.89,110.82-440.1,350.93-643.67-108.37-990.19,201.93"/><path class="cls-30" d="m2153.06,540.61c-393.62,344.97-729.85-261.71-1204.27,114.72-439.87,350.17-641.56-114.3-992.24,200.52"/><path class="cls-81" d="m2161.96,542.81c-394.13,344.89-735.08-258.11-1210.65,118.63-439.64,349.41-639.46-120.23-994.3,199.11"/><path class="cls-60" d="m2170.86,545.02c-394.63,344.82-740.31-254.5-1217.03,122.53-439.41,348.65-637.35-126.17-996.35,197.7"/><path class="cls-13" d="m2179.77,547.22c-395.14,344.74-745.54-250.89-1223.41,126.43-439.18,347.9-635.25-132.1-998.4,196.29"/><path class="cls-82" d="m2188.67,549.42c-395.64,344.67-750.77-247.28-1229.79,130.34-438.94,347.14-633.14-138.03-1000.46,194.88"/><path class="cls-56" d="m2197.57,551.62c-396.15,344.59-756-243.67-1236.17,134.24-438.71,346.38-631.04-143.96-1002.51,193.48"/><path class="cls-138" d="m2206.47,553.83c-396.65,344.52-761.23-240.06-1242.55,138.14-438.48,345.63-628.93-149.89-1004.57,192.07"/><path class="cls-92" d="m2215.37,556.03c-397.16,344.44-766.46-236.45-1248.93,142.05-438.25,344.87-626.82-155.83-1006.62,190.66"/><path class="cls-14" d="m2224.28,558.23c-397.66,344.37-771.7-232.84-1255.31,145.95-438.02,344.11-624.72-161.76-1008.67,189.25"/><path class="cls-75" d="m2233.18,560.44c-398.17,344.29-776.93-229.23-1261.69,149.85-437.79,343.36-622.61-167.69-1010.73,187.84"/><path class="cls-79" d="m2242.08,562.64c-398.68,344.22-782.16-225.62-1268.08,153.76-437.55,342.6-620.51-173.62-1012.78,186.43"/><path class="cls-22" d="m2250.98,564.84c-399.18,344.14-787.39-222.01-1274.46,157.66-437.32,341.84-618.4-179.55-1014.84,185.02"/><path class="cls-103" d="m2259.88,567.05c-399.69,344.07-792.62-218.4-1280.84,161.56-437.09,341.09-616.29-185.49-1016.89,183.61"/><path class="cls-42" d="m2268.79,569.25c-400.19,343.99-797.85-214.79-1287.22,165.47-436.86,340.33-614.19-191.42-1018.94,182.2"/><path class="cls-7" d="m2277.69,571.45c-400.7,343.92-803.08-211.18-1293.6,169.37-436.63,339.57-612.08-197.35-1021,180.79"/><path class="cls-126" d="m2286.59,573.66c-401.2,343.84-808.31-207.57-1299.98,173.27-436.4,338.82-609.98-203.28-1023.05,179.38"/><path class="cls-80" d="m2295.49,575.86c-401.71,343.77-813.54-203.96-1306.36,177.18-436.16,338.06-607.87-209.21-1025.11,177.97"/><path class="cls-71" d="m2304.39,578.06c-402.22,343.69-818.77-200.35-1312.74,181.08-435.93,337.3-605.77-215.15-1027.16,176.56"/><path class="cls-100" d="m2313.29,580.27c-402.72,343.62-824-196.74-1319.12,184.99-435.7,336.54-603.66-221.08-1029.21,175.15"/><path class="cls-51" d="m2322.2,582.47c-403.23,343.54-829.23-193.13-1325.5,188.89-435.47,335.79-601.55-227.01-1031.27,173.74"/><path class="cls-18" d="m2331.1,584.67c-403.73,343.47-834.46-189.52-1331.88,192.79-435.24,335.03-599.45-232.94-1033.32,172.33"/><path class="cls-110" d="m2340,586.88c-404.24,343.39-839.69-185.92-1338.26,196.7-435.01,334.27-597.34-238.87-1035.38,170.92"/><path class="cls-105" d="m2348.9,589.08c-404.74,343.32-844.92-182.31-1344.64,200.6-434.77,333.52-595.24-244.81-1037.43,169.51"/><path class="cls-89" d="m2357.8,591.28c-405.25,343.24-850.15-178.7-1351.03,204.5-434.54,332.76-593.13-250.74-1039.48,168.1"/><path class="cls-29" d="m2366.71,593.48c-405.75,343.17-855.39-175.09-1357.41,208.41-434.31,332-591.02-256.67-1041.54,166.69"/><path class="cls-108" d="m2375.61,595.69c-406.26,343.09-860.62-171.48-1363.79,212.31C577.74,1139.24,422.9,545.39-31.77,973.28"/><path class="cls-11" d="m2384.51,597.89c-406.77,343.02-865.85-167.87-1370.17,216.21C580.49,1144.59,427.53,545.57-31.31,977.98"/><path class="cls-133" d="m2393.41,600.09c-407.27,342.94-871.08-164.26-1376.55,220.12C583.25,1149.94,432.16,545.74-30.84,982.67"/></g><g class="cls-31"><circle class="cls-33" cx="453.25" cy="-126.12" r="246.65"/><circle class="cls-124" cx="452.37" cy="-120.28" r="243.4"/><circle class="cls-32" cx="451.49" cy="-114.44" r="240.16"/><circle class="cls-40" cx="450.61" cy="-108.61" r="236.92"/><circle class="cls-20" cx="449.73" cy="-102.77" r="233.67"/><circle class="cls-55" cx="448.85" cy="-96.94" r="230.43"/><circle class="cls-34" cx="447.97" cy="-91.1" r="227.19"/><circle class="cls-107" cx="447.09" cy="-85.27" r="223.94"/><circle class="cls-119" cx="446.21" cy="-79.43" r="220.7"/><circle class="cls-5" cx="445.33" cy="-73.6" r="217.46"/><circle class="cls-101" cx="444.45" cy="-67.76" r="214.21"/><circle class="cls-99" cx="443.57" cy="-61.93" r="210.97"/><circle class="cls-137" cx="442.69" cy="-56.09" r="207.72"/><circle class="cls-62" cx="441.81" cy="-50.26" r="204.48"/><circle class="cls-134" cx="440.93" cy="-44.42" r="201.24"/><circle class="cls-90" cx="440.05" cy="-38.59" r="197.99"/><circle class="cls-36" cx="439.17" cy="-32.75" r="194.75"/><circle class="cls-66" cx="438.29" cy="-26.92" r="191.51"/><circle class="cls-112" cx="437.41" cy="-21.08" r="188.26"/><circle class="cls-47" cx="436.53" cy="-15.25" r="185.02"/><circle class="cls-26" cx="435.65" cy="-9.41" r="181.78"/><circle class="cls-132" cx="434.77" cy="-3.57" r="178.53"/><circle class="cls-74" cx="433.89" cy="2.26" r="175.29"/><circle class="cls-8" cx="433.01" cy="8.1" r="172.04"/><circle class="cls-93" cx="432.13" cy="13.93" r="168.8"/><circle class="cls-3" cx="431.25" cy="19.77" r="165.56"/><circle class="cls-49" cx="430.37" cy="25.6" r="162.31"/><circle class="cls-12" cx="429.49" cy="31.44" r="159.07"/><circle class="cls-37" cx="428.61" cy="37.27" r="155.83"/><circle class="cls-106" cx="427.73" cy="43.11" r="152.58"/><circle class="cls-2" cx="426.85" cy="48.94" r="149.34"/><circle class="cls-54" cx="425.97" cy="54.78" r="146.1"/><circle class="cls-35" cx="425.09" cy="60.61" r="142.85"/><circle class="cls-114" cx="424.21" cy="66.45" r="139.61"/><circle class="cls-48" cx="423.33" cy="72.28" r="136.36"/><circle class="cls-129" cx="428.96" cy="68.62" r="138.72"/><circle class="cls-136" cx="434.58" cy="64.96" r="141.08"/><circle class="cls-27" cx="440.2" cy="61.3" r="143.43"/><circle class="cls-46" cx="445.83" cy="57.63" r="145.79"/><circle class="cls-67" cx="451.45" cy="53.97" r="148.14"/><circle class="cls-104" cx="457.07" cy="50.31" r="150.5"/><circle class="cls-39" cx="462.7" cy="46.64" r="152.85"/><circle class="cls-77" cx="468.32" cy="42.98" r="155.21"/><circle class="cls-58" cx="473.94" cy="39.32" r="157.57"/><circle class="cls-43" cx="479.56" cy="35.65" r="159.92"/><circle class="cls-24" cx="485.19" cy="31.99" r="162.28"/><circle class="cls-78" cx="490.81" cy="28.33" r="164.63"/><circle class="cls-28" cx="496.43" cy="24.67" r="166.99"/><circle class="cls-57" cx="502.06" cy="21" r="169.34"/><circle class="cls-87" cx="507.68" cy="17.34" r="171.7"/><circle class="cls-139" cx="513.3" cy="13.68" r="174.06"/><circle class="cls-16" cx="518.92" cy="10.01" r="176.41"/><circle class="cls-96" cx="524.55" cy="6.35" r="178.77"/><circle class="cls-69" cx="530.17" cy="2.69" r="181.12"/><circle class="cls-61" cx="535.79" cy="-.97" r="183.48"/><circle class="cls-50" cx="541.42" cy="-4.64" r="185.83"/><circle class="cls-63" cx="547.04" cy="-8.3" r="188.19"/><circle class="cls-83" cx="552.66" cy="-11.96" r="190.55"/><circle class="cls-84" cx="558.28" cy="-15.63" r="192.9"/><circle class="cls-76" cx="563.91" cy="-19.29" r="195.26"/><circle class="cls-38" cx="569.53" cy="-22.95" r="197.61"/></g><circle class="cls-146" cx="540.39" cy="511.47" r="43.96"/><circle class="cls-141" cx="1675.14" cy="1039.6" r="83.17"/><circle class="cls-140" cx="1675.14" cy="153.8" r="33.27"/><circle class="cls-142" cx="206.6" cy="406.91" r="60.59"/><circle class="cls-143" cx="13.12" cy="1095.93" r="43.96"/><circle class="cls-144" cx="40.88" cy="105.96" r="128.91"/><circle class="cls-145" cx="1830.68" cy="381.87" r="43.96"/></svg>