<?xml version="1.0" encoding="UTF-8"?><svg id="Layer_1" xmlns="http://www.w3.org/2000/svg" xmlns:xlink="http://www.w3.org/1999/xlink" viewBox="0 0 139.82 152.18"><defs><style>.cls-1{fill:#d4acd4;}.cls-1,.cls-2,.cls-3{opacity:.6;}.cls-4,.cls-3{fill:#ead5ea;}.cls-2{fill:url(#linear-gradient);}</style><linearGradient id="linear-gradient" x1="123.94" y1="79.83" x2="17.59" y2="79.83" gradientUnits="userSpaceOnUse"><stop offset="0" stop-color="#fff33b"/><stop offset=".04" stop-color="#fee62d"/><stop offset=".12" stop-color="#fdd51b"/><stop offset=".2" stop-color="#fdca0f"/><stop offset=".28" stop-color="#fdc70c"/><stop offset=".67" stop-color="#f3903f"/><stop offset=".89" stop-color="#ed683c"/><stop offset="1" stop-color="#e93e3a"/></linearGradient></defs><path class="cls-4" d="m107.51,76.17c7.6,29.36-9.23,59.55-37.6,67.41-28.37,7.87-57.53-9.56-65.13-38.92C-2.82,75.29,34.29,5.99,34.29,5.99c0,0,65.62,40.81,73.22,70.18Z"/><path class="cls-1" d="m123.09,88.54c0,30.4-23.81,55.04-53.18,55.04s-53.18-24.64-53.18-55.04S69.91,1.14,69.91,1.14c0,0,53.18,57,53.18,87.4Z"/><path class="cls-3" d="m135.04,104.66c-7.6,29.36-36.76,46.79-65.13,38.92-28.37-7.87-45.2-38.05-37.6-67.41C39.91,46.8,105.53,5.99,105.53,5.99c0,0,37.11,69.3,29.51,98.67Z"/><path class="cls-2" d="m123.94,96c0,30.4-23.81,55.04-53.18,55.04s-53.18-24.64-53.18-55.04S70.76,8.6,70.76,8.6c0,0,53.18,57,53.18,87.4Z"/></svg>